<svg width="33" height="33" viewBox="0 0 33 33" fill="none" xmlns="http://www.w3.org/2000/svg">
<path d="M0.839966 5.64679V28.5718C0.839835 29.0631 0.93651 29.5496 1.12447 30.0036C1.31242 30.4575 1.58798 30.8699 1.93539 31.2174C2.2828 31.5648 2.69526 31.8403 3.1492 32.0283C3.60314 32.2163 4.08967 32.3129 4.58098 32.3128H32.981V5.64679H0.839966Z" fill="url(#paint0_linear_116_4263)"/>
<path d="M5.52597 0.839783C4.91051 0.839783 4.30108 0.961023 3.73248 1.19658C3.16389 1.43214 2.64726 1.77741 2.21211 2.21265C1.77696 2.64789 1.43182 3.16458 1.19638 3.73323C0.960946 4.30188 0.839835 4.91134 0.839966 5.52679V29.1648C0.839966 27.922 1.33367 26.7301 2.21246 25.8513C3.09126 24.9725 4.28317 24.4788 5.52597 24.4788H7.76697V0.839783H5.52597Z" fill="url(#paint1_linear_116_4263)"/>
<path opacity="0.2" d="M17.5829 5.64679C17.5429 6.10279 17.5179 6.56378 17.5179 7.03178C17.5183 11.145 19.1439 15.0915 22.0407 18.0117C24.9375 20.9319 28.8708 22.5893 32.9839 22.6228V5.64679H17.5829Z" fill="white"/>
<path d="M28.6239 13.5248H24.8859" stroke="white" stroke-width="1.255" stroke-linecap="round" stroke-linejoin="round"/>
<path d="M28.6239 19.6428H16.3889" stroke="white" stroke-width="1.255" stroke-linecap="round" stroke-linejoin="round"/>
<path d="M28.6239 24.4008H16.3889" stroke="white" stroke-width="1.255" stroke-linecap="round" stroke-linejoin="round"/>
<defs>
<linearGradient id="paint0_linear_116_4263" x1="0.839966" y1="18.9798" x2="32.981" y2="18.9798" gradientUnits="userSpaceOnUse">
<stop stop-color="#7282FF"/>
<stop offset="1" stop-color="#A1B7FF"/>
</linearGradient>
<linearGradient id="paint1_linear_116_4263" x1="29.9819" y1="15.0023" x2="10.2745" y2="15.0023" gradientUnits="userSpaceOnUse">
<stop stop-color="#7282FF"/>
<stop offset="1" stop-color="#A1B7FF"/>
</linearGradient>
</defs>
</svg>
