<svg width="18" height="16" viewBox="0 0 18 16" fill="none" xmlns="http://www.w3.org/2000/svg">
<path d="M17.2043 8.10554L10.0011 0.913908C9.73568 0.648943 9.37566 0.5 9.00038 0.5C8.625 0.5 8.26499 0.648943 7.9997 0.913908L0.796485 8.10554H0.796379C0.684807 8.21703 0.641189 8.37955 0.682067 8.53186C0.722839 8.68406 0.841998 8.80302 0.994556 8.84385C1.14711 8.88467 1.30988 8.84111 1.42156 8.72961L2.60957 7.54363V14.5621C2.60957 14.8319 2.71693 15.0907 2.90792 15.2814C3.09904 15.4722 3.35821 15.5794 3.62846 15.5794H14.3722H14.3721C14.6423 15.5794 14.9015 15.4722 15.0926 15.2814C15.2837 15.0907 15.3911 14.8319 15.3911 14.5621V7.54363L16.5791 8.72972L16.579 8.72961C16.6907 8.84111 16.8534 8.88466 17.006 8.84385C17.1585 8.80304 17.2777 8.68407 17.3186 8.53186C17.3595 8.37955 17.3158 8.21705 17.2042 8.10554L17.2043 8.10554ZM11.0209 14.8593H6.97975V9.58011C6.97975 9.51331 7.00641 9.44915 7.05371 9.40192C7.10102 9.35469 7.16518 9.32818 7.23219 9.32818H10.7684H10.7683C10.8353 9.32818 10.8995 9.35469 10.9468 9.40192C10.9941 9.44915 11.0207 9.51331 11.0207 9.58011L11.0209 14.8593Z" fill="black"/>
</svg>
