<svg width="33" height="18" viewBox="0 0 33 18" fill="none" xmlns="http://www.w3.org/2000/svg">
<path d="M15.878 0.824013C15.4815 0.85225 15.106 1.01257 14.8113 1.27935L0.589334 14.0794C0.23863 14.3947 0.0275572 14.8364 0.00255235 15.3074C-0.0224525 15.7784 0.140655 16.24 0.455998 16.5907C0.77134 16.9414 1.21308 17.1525 1.68405 17.1775C2.15502 17.2025 2.61663 17.0394 2.96733 16.724L16.0013 4.99068L29.034 16.724C29.2077 16.8802 29.4104 17.0006 29.6305 17.0784C29.8507 17.1562 30.0841 17.1898 30.3173 17.1775C30.5505 17.1651 30.779 17.1069 30.9897 17.0062C31.2004 16.9055 31.3892 16.7643 31.5453 16.5907C31.7015 16.417 31.8219 16.2143 31.8997 15.9941C31.9775 15.774 32.0112 15.5406 31.9988 15.3074C31.9864 15.0742 31.9282 14.8457 31.8275 14.635C31.7268 14.4243 31.5857 14.2355 31.412 14.0794L17.19 1.27935C17.0132 1.11944 16.8061 0.996719 16.5809 0.918495C16.3558 0.840271 16.1172 0.808142 15.8793 0.824013H15.878Z" fill="#F7F7F7"/>
</svg>
