<svg width="22" height="22" viewBox="0 0 22 22" fill="none" xmlns="http://www.w3.org/2000/svg">
<path fill-rule="evenodd" clip-rule="evenodd" d="M14.062 15.1905L19.6349 20.7634C19.9468 21.0753 20.4541 21.0753 20.7661 20.7634C21.078 20.4515 21.078 19.9442 20.7661 19.6323L15.1931 14.0593C16.321 12.6802 16.9985 10.918 16.9985 8.99923C16.9985 4.58448 13.414 1 8.99923 1C4.58448 1 1 4.58448 1 8.99923C1 13.414 4.58448 16.9985 8.99923 16.9985C10.919 16.9985 12.6821 16.3209 14.0621 15.1906L14.062 15.1905ZM13.534 13.5129C14.6858 12.3554 15.3986 10.7597 15.3986 8.99891C15.3986 5.46727 12.5309 2.59953 8.99923 2.59953C5.46759 2.59953 2.59985 5.46727 2.59985 8.99891C2.59985 12.5305 5.46759 15.3983 8.99923 15.3983C10.7607 15.3983 12.3573 14.6848 13.5149 13.5313C13.5181 13.5281 13.5213 13.5249 13.5245 13.5217C13.5277 13.5185 13.5309 13.5161 13.5341 13.5129L13.534 13.5129Z" fill="#333333" stroke="#333333"/>
</svg>
