<svg width="22" height="22" viewBox="0 0 22 22" fill="none" xmlns="http://www.w3.org/2000/svg">
<path d="M10.2557 11L1.15419 1.89845C0.948599 1.693 0.948599 1.35965 1.15419 1.1542C1.35964 0.948601 1.693 0.948601 1.89845 1.1542L11 10.2557L20.1016 1.1542C20.307 0.948601 20.6404 0.948601 20.8458 1.1542C21.0514 1.35964 21.0514 1.693 20.8458 1.89845L11.7443 11L20.8458 20.1016C21.0514 20.307 21.0514 20.6404 20.8458 20.8458C20.7432 20.9486 20.6083 21 20.4737 21C20.339 21 20.2042 20.9486 20.1016 20.8458L11 11.7443L1.89845 20.8458C1.7958 20.9486 1.66099 21 1.52633 21C1.39167 21 1.25686 20.9486 1.15421 20.8458C0.948616 20.6404 0.948616 20.307 1.15421 20.1016L10.2557 11Z" fill="white" stroke="white" stroke-width="2"/>
</svg>
