<svg width="26" height="49" viewBox="0 0 26 49" fill="none" xmlns="http://www.w3.org/2000/svg">
<path d="M0.736017 24.185C0.778372 24.7797 1.01885 25.343 1.41902 25.785L20.619 47.118C21.092 47.644 21.7546 47.9606 22.4611 47.9981C23.1675 48.0356 23.86 47.791 24.386 47.318C24.9121 46.8449 25.2287 46.1823 25.2662 45.4759C25.3037 44.7694 25.059 44.077 24.586 43.551L6.98602 24L24.586 4.45096C24.8202 4.19048 25.0008 3.88642 25.1175 3.55614C25.2343 3.22586 25.2848 2.87583 25.2662 2.52604C25.2476 2.17624 25.1603 1.83352 25.0093 1.51746C24.8583 1.20139 24.6465 0.918169 24.386 0.683956C24.1256 0.449744 23.8215 0.26913 23.4912 0.152426C23.1609 0.0357217 22.8109 -0.0147876 22.4611 0.00378407C22.1113 0.0223558 21.7686 0.109644 21.4525 0.260664C21.1365 0.411684 20.8532 0.62348 20.619 0.883957L1.41902 22.217C1.17915 22.4821 0.995076 22.7928 0.877741 23.1306C0.760405 23.4683 0.71221 23.8262 0.736017 24.183L0.736017 24.185Z" fill="#343745"/>
</svg>
