<svg width="22" height="12" viewBox="0 0 22 12" fill="none" xmlns="http://www.w3.org/2000/svg">
<path d="M10.9201 0.634424C10.6599 0.652955 10.4134 0.758162 10.2201 0.933236L0.886885 9.33324C0.656735 9.54019 0.518219 9.83008 0.50181 10.1391C0.4854 10.4482 0.59244 10.7512 0.799383 10.9813C1.00633 11.2115 1.29622 11.35 1.60529 11.3664C1.91436 11.3828 2.2173 11.2757 2.44745 11.0688L11.001 3.3688L19.5537 11.0688C19.6677 11.1713 19.8007 11.2503 19.9452 11.3013C20.0897 11.3524 20.2428 11.3745 20.3959 11.3664C20.5489 11.3583 20.6988 11.3201 20.8371 11.254C20.9754 11.1879 21.0993 11.0953 21.2018 10.9813C21.3042 10.8673 21.3832 10.7343 21.4343 10.5898C21.4854 10.4453 21.5075 10.2922 21.4993 10.1391C21.4912 9.98611 21.453 9.83617 21.387 9.6979C21.3209 9.55962 21.2282 9.43571 21.1143 9.33324L11.7811 0.933236C11.6651 0.828297 11.5291 0.747763 11.3814 0.696429C11.2336 0.645094 11.077 0.624009 10.9209 0.634424H10.9201Z" fill="#F7F7F7"/>
</svg>
