<svg width="19" height="11" viewBox="0 0 19 11" fill="none" xmlns="http://www.w3.org/2000/svg">
<circle cx="9.33222" cy="5.39997" r="4.29999" stroke="#C6C6C6"/>
<mask id="path-2-inside-1_600_6079" fill="white">
<path fill-rule="evenodd" clip-rule="evenodd" d="M9.33204 8.03543C10.7521 8.03543 11.9033 6.88422 11.9033 5.46412C11.9033 4.04403 10.7521 2.89282 9.33204 2.89282C8.83961 2.89282 8.3795 3.03125 7.98852 3.27132C7.95093 3.2944 8.00482 3.40687 8.04893 3.40687C8.47496 3.40687 8.82032 3.75224 8.82032 4.17826C8.82032 4.60429 8.47496 4.94965 8.04893 4.94965C7.6229 4.94965 7.27754 4.60429 7.27754 4.17826C7.27754 4.13398 7.16448 4.07962 7.14125 4.11732C6.89995 4.50901 6.76074 4.97031 6.76074 5.46412C6.76074 6.88422 7.91195 8.03543 9.33204 8.03543Z"/>
</mask>
<path fill-rule="evenodd" clip-rule="evenodd" d="M9.33204 8.03543C10.7521 8.03543 11.9033 6.88422 11.9033 5.46412C11.9033 4.04403 10.7521 2.89282 9.33204 2.89282C8.83961 2.89282 8.3795 3.03125 7.98852 3.27132C7.95093 3.2944 8.00482 3.40687 8.04893 3.40687C8.47496 3.40687 8.82032 3.75224 8.82032 4.17826C8.82032 4.60429 8.47496 4.94965 8.04893 4.94965C7.6229 4.94965 7.27754 4.60429 7.27754 4.17826C7.27754 4.13398 7.16448 4.07962 7.14125 4.11732C6.89995 4.50901 6.76074 4.97031 6.76074 5.46412C6.76074 6.88422 7.91195 8.03543 9.33204 8.03543Z" fill="#C6C6C6"/>
<path d="M7.98852 3.27132L7.72689 2.84523L7.98852 3.27132ZM11.4033 5.46412C11.4033 6.60807 10.476 7.53543 9.33204 7.53543V8.53543C11.0283 8.53543 12.4033 7.16036 12.4033 5.46412H11.4033ZM9.33204 3.39282C10.476 3.39282 11.4033 4.32018 11.4033 5.46412H12.4033C12.4033 3.76789 11.0283 2.39282 9.33204 2.39282V3.39282ZM8.25014 3.69741C8.56467 3.50428 8.93458 3.39282 9.33204 3.39282V2.39282C8.74464 2.39282 8.19433 2.55822 7.72689 2.84523L8.25014 3.69741ZM8.04893 3.90687C8.19881 3.90687 8.32032 4.02838 8.32032 4.17826H9.32032C9.32032 3.47609 8.7511 2.90687 8.04893 2.90687V3.90687ZM8.32032 4.17826C8.32032 4.32815 8.19881 4.44965 8.04893 4.44965V5.44965C8.7511 5.44965 9.32032 4.88043 9.32032 4.17826H8.32032ZM8.04893 4.44965C7.89904 4.44965 7.77754 4.32815 7.77754 4.17826H6.77754C6.77754 4.88043 7.34676 5.44965 8.04893 5.44965V4.44965ZM7.26074 5.46412C7.26074 5.06555 7.37283 4.69468 7.56695 4.37958L6.71555 3.85506C6.42706 4.32333 6.26074 4.87507 6.26074 5.46412H7.26074ZM9.33204 7.53543C8.1881 7.53543 7.26074 6.60807 7.26074 5.46412H6.26074C6.26074 7.16036 7.63581 8.53543 9.33204 8.53543V7.53543ZM7.77754 4.17826C7.77754 3.9644 7.65296 3.83023 7.60934 3.78752C7.55003 3.72944 7.48484 3.68952 7.42797 3.66322C7.37397 3.63825 7.29084 3.60856 7.18989 3.60502C7.10374 3.60199 6.86101 3.61896 6.71555 3.85506L7.56695 4.37958C7.43311 4.59683 7.21322 4.60645 7.15481 4.6044C7.08158 4.60183 7.03107 4.58143 7.00824 4.57087C6.98254 4.55899 6.94707 4.5386 6.90968 4.502C6.88798 4.48075 6.77754 4.36998 6.77754 4.17826H7.77754ZM7.72689 2.84523C7.49098 2.99008 7.47331 3.23228 7.47617 3.31875C7.47951 3.41977 7.50908 3.50298 7.53399 3.55702C7.56021 3.61393 7.60008 3.67919 7.65817 3.73858C7.70103 3.78239 7.83515 3.90687 8.04893 3.90687V2.90687C8.24066 2.90687 8.3515 3.01729 8.37302 3.0393C8.40978 3.07687 8.43025 3.11258 8.44219 3.13848C8.4528 3.16152 8.4732 3.21228 8.47562 3.28572C8.47757 3.34461 8.46726 3.56409 8.25014 3.69741L7.72689 2.84523Z" fill="#C6C6C6" mask="url(#path-2-inside-1_600_6079)"/>
<path d="M17.3299 5.09933C17.5037 5.26748 17.5037 5.53251 17.3299 5.70066C16.5963 6.41073 15.3118 7.57265 13.8359 8.55387C12.3429 9.54644 10.7331 10.3 9.33302 10.3C7.93294 10.3 6.32313 9.54644 4.83013 8.55387C3.3542 7.57265 2.0697 6.41073 1.33609 5.70066C1.16238 5.53251 1.16238 5.26748 1.33609 5.09933C2.0697 4.38926 3.3542 3.22734 4.83013 2.24611C6.32313 1.25355 7.93294 0.5 9.33302 0.5C10.7331 0.5 12.3429 1.25355 13.8359 2.24612C15.3118 3.22734 16.5963 4.38926 17.3299 5.09933Z" stroke="#C6C6C6"/>
</svg>
