<svg width="20" height="37" viewBox="0 0 20 37" fill="none" xmlns="http://www.w3.org/2000/svg">
<path d="M0.801316 17.8626C0.833082 17.4166 1.01344 16.9941 1.31356 16.6627L15.7136 0.662905C16.0683 0.268363 16.5653 0.0309065 17.0951 0.00277613C17.625 -0.0253542 18.1443 0.158142 18.5388 0.512903C18.9334 0.867663 19.1708 1.36462 19.199 1.89446C19.2271 2.4243 19.0436 2.94361 18.6888 3.33815L5.48882 18.0014L18.6888 32.6632C18.8645 32.8585 18.9999 33.0866 19.0875 33.3343C19.175 33.582 19.2129 33.8445 19.199 34.1068C19.185 34.3692 19.1196 34.6262 19.0063 34.8633C18.893 35.1003 18.7342 35.3127 18.5388 35.4884C18.3435 35.6641 18.1154 35.7995 17.8677 35.8871C17.62 35.9746 17.3575 36.0125 17.0951 35.9985C16.8328 35.9846 16.5757 35.9191 16.3387 35.8059C16.1016 35.6926 15.8892 35.5338 15.7136 35.3384L1.31356 19.3387C1.13367 19.1398 0.99561 18.9068 0.907608 18.6535C0.819607 18.4001 0.783461 18.1317 0.801316 17.8642L0.801316 17.8626Z" fill="black"/>
</svg>
