<svg width="32" height="32" viewBox="0 0 32 32" fill="none" xmlns="http://www.w3.org/2000/svg">
<path fill-rule="evenodd" clip-rule="evenodd" d="M13.3574 15.3355C13.3574 15.531 13.4489 15.7155 13.6049 15.8335C13.7604 15.9515 13.9629 15.99 14.1509 15.9375C14.7394 15.7725 15.3594 15.6845 16.0004 15.6845C16.6414 15.6845 17.2614 15.7725 17.8499 15.9375C18.0379 15.99 18.2404 15.9515 18.3959 15.8335C18.5519 15.7155 18.6434 15.531 18.6434 15.3355V14.2055C18.6434 13.08 17.7314 12.168 16.6059 12.168H15.3949C14.2694 12.168 13.3574 13.08 13.3574 14.2055V15.3355V15.3355Z" fill="url(#paint0_linear_204_1869)"/>
<path d="M15.9998 30.625C20.4708 30.625 24.0953 27.0005 24.0953 22.5295C24.0953 18.0585 20.4708 14.434 15.9998 14.434C11.5288 14.434 7.9043 18.0585 7.9043 22.5295C7.9043 27.0005 11.5288 30.625 15.9998 30.625Z" fill="url(#paint1_linear_204_1869)"/>
<path d="M16.0005 28.529C19.3139 28.529 22 25.8429 22 22.5295C22 19.2161 19.3139 16.53 16.0005 16.53C12.687 16.53 10.001 19.2161 10.001 22.5295C10.001 25.8429 12.687 28.529 16.0005 28.529Z" fill="url(#paint2_linear_204_1869)"/>
<path d="M16.0844 25.316C16.0259 25.316 15.9794 25.2975 15.9449 25.2605C15.9104 25.2235 15.8934 25.178 15.8934 25.125V21.001L14.6829 21.9325C14.6354 21.9645 14.5874 21.9765 14.5399 21.9685C14.4919 21.9605 14.4494 21.9325 14.4124 21.885L14.0779 21.455C14.0464 21.407 14.0344 21.3565 14.0424 21.3035C14.0504 21.2505 14.0779 21.208 14.1259 21.176L15.9094 19.799C15.9409 19.7725 15.9729 19.7565 16.0049 19.751C16.0364 19.746 16.0709 19.743 16.1084 19.743H16.8089C16.8619 19.743 16.9069 19.7615 16.9444 19.799C16.9814 19.836 16.9999 19.881 16.9999 19.934V25.125C16.9999 25.178 16.9814 25.2235 16.9444 25.2605C16.9069 25.2975 16.8619 25.316 16.8089 25.316H16.0844V25.316Z" fill="url(#paint3_linear_204_1869)"/>
<path fill-rule="evenodd" clip-rule="evenodd" d="M23.6875 4.01801C23.6875 3.67301 23.4075 3.39301 23.0625 3.39301H8.93652C8.59152 3.39301 8.31152 3.67301 8.31152 4.01801V8.48251C8.31152 9.06601 8.62402 9.60451 9.13002 9.89351L15.1935 13.358C15.693 13.6435 16.306 13.6435 16.8055 13.358L22.869 9.89351C23.375 9.60451 23.6875 9.06601 23.6875 8.48251V4.01801Z" fill="url(#paint4_linear_204_1869)"/>
<path fill-rule="evenodd" clip-rule="evenodd" d="M14.1436 12.758L12.8936 12.044V3.39301H14.1436V12.758Z" fill="url(#paint5_linear_204_1869)"/>
<path fill-rule="evenodd" clip-rule="evenodd" d="M19.1064 12.044L17.8564 12.758V3.39301H19.1064V12.044Z" fill="url(#paint6_linear_204_1869)"/>
<path fill-rule="evenodd" clip-rule="evenodd" d="M6.79883 3.009C6.79883 3.4425 6.97083 3.858 7.27733 4.1645C7.58383 4.471 7.99933 4.643 8.43283 4.643C11.4738 4.643 20.5268 4.643 23.5678 4.643C24.0013 4.643 24.4168 4.471 24.7233 4.1645C25.0298 3.858 25.2018 3.4425 25.2018 3.009C25.2018 2.5755 25.0298 2.16 24.7233 1.8535C24.4168 1.547 24.0013 1.375 23.5678 1.375C20.5268 1.375 11.4738 1.375 8.43283 1.375C7.99933 1.375 7.58383 1.547 7.27733 1.8535C6.97083 2.16 6.79883 2.5755 6.79883 3.009V3.009Z" fill="url(#paint7_linear_204_1869)"/>
<defs>
<linearGradient id="paint0_linear_204_1869" x1="115.963" y1="13.25" x2="115.963" y2="15.5" gradientUnits="userSpaceOnUse">
<stop stop-color="#FEA14E"/>
<stop offset="1" stop-color="#D76500"/>
</linearGradient>
<linearGradient id="paint1_linear_204_1869" x1="66.4998" y1="24.4165" x2="66.4998" y2="54.0854" gradientUnits="userSpaceOnUse">
<stop stop-color="#EBF0FA"/>
<stop offset="1" stop-color="#5F90F2"/>
</linearGradient>
<linearGradient id="paint2_linear_204_1869" x1="66.039" y1="21.8294" x2="66.039" y2="37.2591" gradientUnits="userSpaceOnUse">
<stop stop-color="#FFD54F"/>
<stop offset="1" stop-color="#D8A500"/>
</linearGradient>
<linearGradient id="paint3_linear_204_1869" x1="66.38" y1="22.277" x2="66.38" y2="37.976" gradientUnits="userSpaceOnUse">
<stop stop-color="#455A64"/>
<stop offset="1" stop-color="#18313C"/>
</linearGradient>
<linearGradient id="paint4_linear_204_1869" x1="65.444" y1="7.36986" x2="65.444" y2="2.53113" gradientUnits="userSpaceOnUse">
<stop stop-color="#FC015C"/>
<stop offset="1" stop-color="#970037"/>
</linearGradient>
<linearGradient id="paint5_linear_204_1869" x1="113.519" y1="7.50001" x2="113.519" y2="-0.749995" gradientUnits="userSpaceOnUse">
<stop stop-color="#EEF4FE"/>
<stop offset="1" stop-color="#5896FF"/>
</linearGradient>
<linearGradient id="paint6_linear_204_1869" x1="113.518" y1="7.50001" x2="113.518" y2="-0.749995" gradientUnits="userSpaceOnUse">
<stop stop-color="#EEF4FE"/>
<stop offset="1" stop-color="#5896FF"/>
</linearGradient>
<linearGradient id="paint7_linear_204_1869" x1="116.25" y1="2.66989" x2="116.25" y2="7.10403" gradientUnits="userSpaceOnUse">
<stop stop-color="#455A64"/>
<stop offset="1" stop-color="#18313C"/>
</linearGradient>
</defs>
</svg>
