<svg width="18" height="18" viewBox="0 0 18 18" fill="none" xmlns="http://www.w3.org/2000/svg">
<mask id="path-1-outside-1_268_6030" maskUnits="userSpaceOnUse" x="0" y="0" width="18" height="18" fill="black">
<rect fill="white" width="18" height="18"/>
<path d="M12.9461 17C12.7387 17 12.5312 16.9846 12.3237 16.9614C12.1242 16.9305 11.9007 16.8841 11.6534 16.8146C11.414 16.7451 11.2304 16.691 11.1187 16.6524C11.007 16.6138 10.7995 16.5366 10.5122 16.4284C10.2329 16.3203 10.0574 16.2585 9.99352 16.2353C9.25137 15.9727 8.58903 15.656 8.01446 15.3007C7.07282 14.7214 6.08329 13.9182 5.08579 12.914C4.08828 11.9099 3.28229 10.929 2.69975 9.98668C2.34065 9.41511 2.02943 8.75086 1.76608 8.02481C1.74214 7.94757 1.6783 7.77764 1.57456 7.49186C1.46284 7.20607 1.39102 6.99753 1.35112 6.88939C1.31122 6.77353 1.25536 6.59588 1.18354 6.34872C1.1197 6.10928 1.07182 5.87756 1.0399 5.67674C1.01596 5.48364 1 5.27509 1 5.05882C1 4.33277 1.1995 3.599 1.5985 2.86523C2.05337 2.04649 2.48429 1.55989 2.93117 1.37451C3.13067 1.28183 3.39402 1.20459 3.73716 1.11962C4.3197 0.988318 4.7187 0.957422 4.96608 1.06556C5.14963 1.12735 5.36509 1.32817 5.73217 2.06967C5.80399 2.18552 5.90773 2.38635 6.05137 2.64124C6.18703 2.89613 6.30673 3.12012 6.42643 3.32867C6.53816 3.52949 6.64988 3.72258 6.75362 3.90023C6.75362 3.90023 6.82544 3.99292 6.92918 4.1474C7.04888 4.31733 7.12868 4.45636 7.19252 4.57994C7.27232 4.74214 7.30424 4.89662 7.30424 5.05882C7.30424 5.31371 7.16858 5.5686 6.88928 5.86211C6.67382 6.09383 6.42643 6.3101 6.17107 6.5032C5.94763 6.6654 5.73217 6.85077 5.54065 7.03615C5.39701 7.1829 5.35711 7.26014 5.34913 7.27559C5.34913 7.28331 5.35711 7.31421 5.38105 7.36827C5.41297 7.44551 5.43691 7.50731 5.45287 7.54592C5.47681 7.59227 5.52469 7.66951 5.58853 7.77764C5.67631 7.91667 5.72419 7.99391 5.73217 8.00936C6.25087 8.94395 6.86534 9.77814 7.54364 10.4501C8.22195 11.1298 9.04389 11.74 10.0015 12.2652C10.0095 12.273 10.0893 12.3116 10.2249 12.3965C10.3367 12.4661 10.4085 12.5124 10.4564 12.5356C10.4963 12.5587 10.5521 12.5819 10.6399 12.6128C10.7037 12.636 10.7357 12.6437 10.7436 12.6437C10.7436 12.636 10.8155 12.6051 10.9671 12.4506C11.1586 12.2575 11.3342 12.049 11.5017 11.8173C11.6933 11.5624 11.9087 11.3152 12.1402 11.0989C12.6269 10.6355 13.018 10.6046 13.4249 10.7977C13.5446 10.8518 13.6883 10.9367 13.8559 11.0603C14.0155 11.1684 14.1112 11.238 14.1431 11.2611C14.2868 11.3384 14.4703 11.4542 14.6778 11.5624C14.8853 11.6782 15.1087 11.8018 15.3561 11.9408C15.6115 12.0799 15.811 12.188 15.9466 12.273C16.6728 12.636 16.8723 12.8523 16.9441 13.0608C16.9761 13.1303 17 13.2539 17 13.4084C17 13.6324 16.9601 13.9104 16.8803 14.258C16.8005 14.5979 16.7207 14.8605 16.6329 15.069C16.4494 15.5093 15.9626 15.9418 15.1486 16.3975C14.4065 16.7992 13.6723 17 12.9461 17ZM4.58304 1.77616C4.42344 1.77616 4.19202 1.80705 3.91272 1.87657C3.62544 1.93836 3.39402 2.00787 3.23441 2.07739C3.07481 2.14691 2.74763 2.37862 2.27681 3.22825C1.94165 3.84617 1.76608 4.45636 1.76608 5.05882C1.76608 5.23647 1.77406 5.4064 1.79801 5.57633C1.82195 5.74625 1.86185 5.93935 1.92569 6.1479C1.98953 6.37189 2.03741 6.53409 2.07731 6.6345C2.11721 6.74264 2.18903 6.94346 2.30075 7.22924C2.41247 7.52275 2.47631 7.70813 2.50025 7.76992C2.73965 8.4419 3.02693 9.05209 3.36209 9.57732C3.91272 10.4733 4.6788 11.4156 5.63641 12.3734C6.59402 13.3311 7.53566 14.0958 8.42943 14.6442C8.95611 14.9763 9.57057 15.2621 10.2489 15.5093C10.3047 15.5325 10.4883 15.5942 10.7835 15.7101C11.0708 15.8182 11.2703 15.8878 11.382 15.9264C11.4858 15.965 11.6534 16.0113 11.8688 16.0731C12.0843 16.1349 12.2758 16.1735 12.4354 16.1967C13.1616 16.2894 13.9756 16.1581 14.7815 15.7256C15.6274 15.2544 15.8668 14.9223 15.9307 14.7678C16.0025 14.6056 16.0663 14.3816 16.1382 14.0881C16.202 13.8023 16.2339 13.5783 16.2339 13.4084C16.2339 13.3543 16.2259 13.3234 16.2259 13.3234C16.218 13.3234 16.0903 13.2076 15.5875 12.9527C15.4279 12.86 15.2364 12.7596 14.989 12.6205C14.7337 12.4815 14.5022 12.3579 14.2948 12.2421C14.0873 12.1262 13.8878 12.0103 13.7042 11.9022C13.6404 11.8559 13.5526 11.7941 13.409 11.6937C13.2813 11.601 13.1696 11.5392 13.0738 11.4928C13.018 11.462 12.9781 11.4542 12.9302 11.4542C12.9302 11.4542 12.8424 11.4774 12.6589 11.655C12.4594 11.8481 12.2758 12.0567 12.1082 12.273C11.9167 12.5279 11.7172 12.7673 11.5017 12.9836C11.0868 13.4007 10.8075 13.4933 10.3526 13.3311C10.2409 13.2925 10.1531 13.2539 10.0973 13.223C10.0334 13.1921 9.93766 13.138 9.802 13.0531C9.69825 12.9836 9.63441 12.9527 9.61047 12.9372C8.59701 12.3734 7.71122 11.7168 6.98504 10.9908C6.25885 10.2647 5.60449 9.38422 5.03791 8.36466C5.02993 8.34921 4.99801 8.28742 4.93416 8.18701C4.84638 8.04798 4.79052 7.95529 4.76658 7.8935C4.73466 7.83943 4.70274 7.75447 4.65486 7.63861C4.60698 7.49186 4.58304 7.376 4.58304 7.26014C4.58304 7.01297 4.7187 6.77353 5.00599 6.48775C5.22145 6.2792 5.46085 6.07066 5.70823 5.88528C5.93965 5.71536 6.14713 5.52998 6.33067 5.32916C6.51421 5.13606 6.53017 5.0511 6.53017 5.04338C6.53017 5.01248 6.51421 4.95841 6.49027 4.91207C6.45835 4.82711 6.38653 4.71125 6.29875 4.57994C6.20299 4.43319 6.13915 4.34822 6.11521 4.32505C5.98753 4.10878 5.86783 3.91568 5.75611 3.70714C5.63641 3.49859 5.51671 3.26687 5.37307 3.01198C5.23741 2.76482 5.13367 2.57172 5.05387 2.44041C4.81446 1.96153 4.69476 1.81478 4.65486 1.77616C4.64688 1.77616 4.62294 1.77616 4.58304 1.77616Z"/>
</mask>
<path d="M12.9461 17C12.7387 17 12.5312 16.9846 12.3237 16.9614C12.1242 16.9305 11.9007 16.8841 11.6534 16.8146C11.414 16.7451 11.2304 16.691 11.1187 16.6524C11.007 16.6138 10.7995 16.5366 10.5122 16.4284C10.2329 16.3203 10.0574 16.2585 9.99352 16.2353C9.25137 15.9727 8.58903 15.656 8.01446 15.3007C7.07282 14.7214 6.08329 13.9182 5.08579 12.914C4.08828 11.9099 3.28229 10.929 2.69975 9.98668C2.34065 9.41511 2.02943 8.75086 1.76608 8.02481C1.74214 7.94757 1.6783 7.77764 1.57456 7.49186C1.46284 7.20607 1.39102 6.99753 1.35112 6.88939C1.31122 6.77353 1.25536 6.59588 1.18354 6.34872C1.1197 6.10928 1.07182 5.87756 1.0399 5.67674C1.01596 5.48364 1 5.27509 1 5.05882C1 4.33277 1.1995 3.599 1.5985 2.86523C2.05337 2.04649 2.48429 1.55989 2.93117 1.37451C3.13067 1.28183 3.39402 1.20459 3.73716 1.11962C4.3197 0.988318 4.7187 0.957422 4.96608 1.06556C5.14963 1.12735 5.36509 1.32817 5.73217 2.06967C5.80399 2.18552 5.90773 2.38635 6.05137 2.64124C6.18703 2.89613 6.30673 3.12012 6.42643 3.32867C6.53816 3.52949 6.64988 3.72258 6.75362 3.90023C6.75362 3.90023 6.82544 3.99292 6.92918 4.1474C7.04888 4.31733 7.12868 4.45636 7.19252 4.57994C7.27232 4.74214 7.30424 4.89662 7.30424 5.05882C7.30424 5.31371 7.16858 5.5686 6.88928 5.86211C6.67382 6.09383 6.42643 6.3101 6.17107 6.5032C5.94763 6.6654 5.73217 6.85077 5.54065 7.03615C5.39701 7.1829 5.35711 7.26014 5.34913 7.27559C5.34913 7.28331 5.35711 7.31421 5.38105 7.36827C5.41297 7.44551 5.43691 7.50731 5.45287 7.54592C5.47681 7.59227 5.52469 7.66951 5.58853 7.77764C5.67631 7.91667 5.72419 7.99391 5.73217 8.00936C6.25087 8.94395 6.86534 9.77814 7.54364 10.4501C8.22195 11.1298 9.04389 11.74 10.0015 12.2652C10.0095 12.273 10.0893 12.3116 10.2249 12.3965C10.3367 12.4661 10.4085 12.5124 10.4564 12.5356C10.4963 12.5587 10.5521 12.5819 10.6399 12.6128C10.7037 12.636 10.7357 12.6437 10.7436 12.6437C10.7436 12.636 10.8155 12.6051 10.9671 12.4506C11.1586 12.2575 11.3342 12.049 11.5017 11.8173C11.6933 11.5624 11.9087 11.3152 12.1402 11.0989C12.6269 10.6355 13.018 10.6046 13.4249 10.7977C13.5446 10.8518 13.6883 10.9367 13.8559 11.0603C14.0155 11.1684 14.1112 11.238 14.1431 11.2611C14.2868 11.3384 14.4703 11.4542 14.6778 11.5624C14.8853 11.6782 15.1087 11.8018 15.3561 11.9408C15.6115 12.0799 15.811 12.188 15.9466 12.273C16.6728 12.636 16.8723 12.8523 16.9441 13.0608C16.9761 13.1303 17 13.2539 17 13.4084C17 13.6324 16.9601 13.9104 16.8803 14.258C16.8005 14.5979 16.7207 14.8605 16.6329 15.069C16.4494 15.5093 15.9626 15.9418 15.1486 16.3975C14.4065 16.7992 13.6723 17 12.9461 17ZM4.58304 1.77616C4.42344 1.77616 4.19202 1.80705 3.91272 1.87657C3.62544 1.93836 3.39402 2.00787 3.23441 2.07739C3.07481 2.14691 2.74763 2.37862 2.27681 3.22825C1.94165 3.84617 1.76608 4.45636 1.76608 5.05882C1.76608 5.23647 1.77406 5.4064 1.79801 5.57633C1.82195 5.74625 1.86185 5.93935 1.92569 6.1479C1.98953 6.37189 2.03741 6.53409 2.07731 6.6345C2.11721 6.74264 2.18903 6.94346 2.30075 7.22924C2.41247 7.52275 2.47631 7.70813 2.50025 7.76992C2.73965 8.4419 3.02693 9.05209 3.36209 9.57732C3.91272 10.4733 4.6788 11.4156 5.63641 12.3734C6.59402 13.3311 7.53566 14.0958 8.42943 14.6442C8.95611 14.9763 9.57057 15.2621 10.2489 15.5093C10.3047 15.5325 10.4883 15.5942 10.7835 15.7101C11.0708 15.8182 11.2703 15.8878 11.382 15.9264C11.4858 15.965 11.6534 16.0113 11.8688 16.0731C12.0843 16.1349 12.2758 16.1735 12.4354 16.1967C13.1616 16.2894 13.9756 16.1581 14.7815 15.7256C15.6274 15.2544 15.8668 14.9223 15.9307 14.7678C16.0025 14.6056 16.0663 14.3816 16.1382 14.0881C16.202 13.8023 16.2339 13.5783 16.2339 13.4084C16.2339 13.3543 16.2259 13.3234 16.2259 13.3234C16.218 13.3234 16.0903 13.2076 15.5875 12.9527C15.4279 12.86 15.2364 12.7596 14.989 12.6205C14.7337 12.4815 14.5022 12.3579 14.2948 12.2421C14.0873 12.1262 13.8878 12.0103 13.7042 11.9022C13.6404 11.8559 13.5526 11.7941 13.409 11.6937C13.2813 11.601 13.1696 11.5392 13.0738 11.4928C13.018 11.462 12.9781 11.4542 12.9302 11.4542C12.9302 11.4542 12.8424 11.4774 12.6589 11.655C12.4594 11.8481 12.2758 12.0567 12.1082 12.273C11.9167 12.5279 11.7172 12.7673 11.5017 12.9836C11.0868 13.4007 10.8075 13.4933 10.3526 13.3311C10.2409 13.2925 10.1531 13.2539 10.0973 13.223C10.0334 13.1921 9.93766 13.138 9.802 13.0531C9.69825 12.9836 9.63441 12.9527 9.61047 12.9372C8.59701 12.3734 7.71122 11.7168 6.98504 10.9908C6.25885 10.2647 5.60449 9.38422 5.03791 8.36466C5.02993 8.34921 4.99801 8.28742 4.93416 8.18701C4.84638 8.04798 4.79052 7.95529 4.76658 7.8935C4.73466 7.83943 4.70274 7.75447 4.65486 7.63861C4.60698 7.49186 4.58304 7.376 4.58304 7.26014C4.58304 7.01297 4.7187 6.77353 5.00599 6.48775C5.22145 6.2792 5.46085 6.07066 5.70823 5.88528C5.93965 5.71536 6.14713 5.52998 6.33067 5.32916C6.51421 5.13606 6.53017 5.0511 6.53017 5.04338C6.53017 5.01248 6.51421 4.95841 6.49027 4.91207C6.45835 4.82711 6.38653 4.71125 6.29875 4.57994C6.20299 4.43319 6.13915 4.34822 6.11521 4.32505C5.98753 4.10878 5.86783 3.91568 5.75611 3.70714C5.63641 3.49859 5.51671 3.26687 5.37307 3.01198C5.23741 2.76482 5.13367 2.57172 5.05387 2.44041C4.81446 1.96153 4.69476 1.81478 4.65486 1.77616C4.64688 1.77616 4.62294 1.77616 4.58304 1.77616Z" fill="#242424"/>
<path d="M12.9461 17C12.7387 17 12.5312 16.9846 12.3237 16.9614C12.1242 16.9305 11.9007 16.8841 11.6534 16.8146C11.414 16.7451 11.2304 16.691 11.1187 16.6524C11.007 16.6138 10.7995 16.5366 10.5122 16.4284C10.2329 16.3203 10.0574 16.2585 9.99352 16.2353C9.25137 15.9727 8.58903 15.656 8.01446 15.3007C7.07282 14.7214 6.08329 13.9182 5.08579 12.914C4.08828 11.9099 3.28229 10.929 2.69975 9.98668C2.34065 9.41511 2.02943 8.75086 1.76608 8.02481C1.74214 7.94757 1.6783 7.77764 1.57456 7.49186C1.46284 7.20607 1.39102 6.99753 1.35112 6.88939C1.31122 6.77353 1.25536 6.59588 1.18354 6.34872C1.1197 6.10928 1.07182 5.87756 1.0399 5.67674C1.01596 5.48364 1 5.27509 1 5.05882C1 4.33277 1.1995 3.599 1.5985 2.86523C2.05337 2.04649 2.48429 1.55989 2.93117 1.37451C3.13067 1.28183 3.39402 1.20459 3.73716 1.11962C4.3197 0.988318 4.7187 0.957422 4.96608 1.06556C5.14963 1.12735 5.36509 1.32817 5.73217 2.06967C5.80399 2.18552 5.90773 2.38635 6.05137 2.64124C6.18703 2.89613 6.30673 3.12012 6.42643 3.32867C6.53816 3.52949 6.64988 3.72258 6.75362 3.90023C6.75362 3.90023 6.82544 3.99292 6.92918 4.1474C7.04888 4.31733 7.12868 4.45636 7.19252 4.57994C7.27232 4.74214 7.30424 4.89662 7.30424 5.05882C7.30424 5.31371 7.16858 5.5686 6.88928 5.86211C6.67382 6.09383 6.42643 6.3101 6.17107 6.5032C5.94763 6.6654 5.73217 6.85077 5.54065 7.03615C5.39701 7.1829 5.35711 7.26014 5.34913 7.27559C5.34913 7.28331 5.35711 7.31421 5.38105 7.36827C5.41297 7.44551 5.43691 7.50731 5.45287 7.54592C5.47681 7.59227 5.52469 7.66951 5.58853 7.77764C5.67631 7.91667 5.72419 7.99391 5.73217 8.00936C6.25087 8.94395 6.86534 9.77814 7.54364 10.4501C8.22195 11.1298 9.04389 11.74 10.0015 12.2652C10.0095 12.273 10.0893 12.3116 10.2249 12.3965C10.3367 12.4661 10.4085 12.5124 10.4564 12.5356C10.4963 12.5587 10.5521 12.5819 10.6399 12.6128C10.7037 12.636 10.7357 12.6437 10.7436 12.6437C10.7436 12.636 10.8155 12.6051 10.9671 12.4506C11.1586 12.2575 11.3342 12.049 11.5017 11.8173C11.6933 11.5624 11.9087 11.3152 12.1402 11.0989C12.6269 10.6355 13.018 10.6046 13.4249 10.7977C13.5446 10.8518 13.6883 10.9367 13.8559 11.0603C14.0155 11.1684 14.1112 11.238 14.1431 11.2611C14.2868 11.3384 14.4703 11.4542 14.6778 11.5624C14.8853 11.6782 15.1087 11.8018 15.3561 11.9408C15.6115 12.0799 15.811 12.188 15.9466 12.273C16.6728 12.636 16.8723 12.8523 16.9441 13.0608C16.9761 13.1303 17 13.2539 17 13.4084C17 13.6324 16.9601 13.9104 16.8803 14.258C16.8005 14.5979 16.7207 14.8605 16.6329 15.069C16.4494 15.5093 15.9626 15.9418 15.1486 16.3975C14.4065 16.7992 13.6723 17 12.9461 17ZM4.58304 1.77616C4.42344 1.77616 4.19202 1.80705 3.91272 1.87657C3.62544 1.93836 3.39402 2.00787 3.23441 2.07739C3.07481 2.14691 2.74763 2.37862 2.27681 3.22825C1.94165 3.84617 1.76608 4.45636 1.76608 5.05882C1.76608 5.23647 1.77406 5.4064 1.79801 5.57633C1.82195 5.74625 1.86185 5.93935 1.92569 6.1479C1.98953 6.37189 2.03741 6.53409 2.07731 6.6345C2.11721 6.74264 2.18903 6.94346 2.30075 7.22924C2.41247 7.52275 2.47631 7.70813 2.50025 7.76992C2.73965 8.4419 3.02693 9.05209 3.36209 9.57732C3.91272 10.4733 4.6788 11.4156 5.63641 12.3734C6.59402 13.3311 7.53566 14.0958 8.42943 14.6442C8.95611 14.9763 9.57057 15.2621 10.2489 15.5093C10.3047 15.5325 10.4883 15.5942 10.7835 15.7101C11.0708 15.8182 11.2703 15.8878 11.382 15.9264C11.4858 15.965 11.6534 16.0113 11.8688 16.0731C12.0843 16.1349 12.2758 16.1735 12.4354 16.1967C13.1616 16.2894 13.9756 16.1581 14.7815 15.7256C15.6274 15.2544 15.8668 14.9223 15.9307 14.7678C16.0025 14.6056 16.0663 14.3816 16.1382 14.0881C16.202 13.8023 16.2339 13.5783 16.2339 13.4084C16.2339 13.3543 16.2259 13.3234 16.2259 13.3234C16.218 13.3234 16.0903 13.2076 15.5875 12.9527C15.4279 12.86 15.2364 12.7596 14.989 12.6205C14.7337 12.4815 14.5022 12.3579 14.2948 12.2421C14.0873 12.1262 13.8878 12.0103 13.7042 11.9022C13.6404 11.8559 13.5526 11.7941 13.409 11.6937C13.2813 11.601 13.1696 11.5392 13.0738 11.4928C13.018 11.462 12.9781 11.4542 12.9302 11.4542C12.9302 11.4542 12.8424 11.4774 12.6589 11.655C12.4594 11.8481 12.2758 12.0567 12.1082 12.273C11.9167 12.5279 11.7172 12.7673 11.5017 12.9836C11.0868 13.4007 10.8075 13.4933 10.3526 13.3311C10.2409 13.2925 10.1531 13.2539 10.0973 13.223C10.0334 13.1921 9.93766 13.138 9.802 13.0531C9.69825 12.9836 9.63441 12.9527 9.61047 12.9372C8.59701 12.3734 7.71122 11.7168 6.98504 10.9908C6.25885 10.2647 5.60449 9.38422 5.03791 8.36466C5.02993 8.34921 4.99801 8.28742 4.93416 8.18701C4.84638 8.04798 4.79052 7.95529 4.76658 7.8935C4.73466 7.83943 4.70274 7.75447 4.65486 7.63861C4.60698 7.49186 4.58304 7.376 4.58304 7.26014C4.58304 7.01297 4.7187 6.77353 5.00599 6.48775C5.22145 6.2792 5.46085 6.07066 5.70823 5.88528C5.93965 5.71536 6.14713 5.52998 6.33067 5.32916C6.51421 5.13606 6.53017 5.0511 6.53017 5.04338C6.53017 5.01248 6.51421 4.95841 6.49027 4.91207C6.45835 4.82711 6.38653 4.71125 6.29875 4.57994C6.20299 4.43319 6.13915 4.34822 6.11521 4.32505C5.98753 4.10878 5.86783 3.91568 5.75611 3.70714C5.63641 3.49859 5.51671 3.26687 5.37307 3.01198C5.23741 2.76482 5.13367 2.57172 5.05387 2.44041C4.81446 1.96153 4.69476 1.81478 4.65486 1.77616C4.64688 1.77616 4.62294 1.77616 4.58304 1.77616Z" stroke="#212121" stroke-width="0.4" mask="url(#path-1-outside-1_268_6030)"/>
</svg>
