<svg width="32" height="32" viewBox="0 0 32 32" fill="none" xmlns="http://www.w3.org/2000/svg">
<path fill-rule="evenodd" clip-rule="evenodd" d="M14.1142 18.888C13.9432 18.8385 13.7592 18.865 13.6082 18.96C13.4577 19.0555 13.3547 19.21 13.3257 19.386L12.7342 22.936C12.7037 23.117 12.7552 23.3025 12.8737 23.4425C12.9927 23.5825 13.1667 23.6635 13.3507 23.6635H18.6557C18.8397 23.6635 19.0142 23.5825 19.1327 23.4425C19.2517 23.3025 19.3027 23.117 19.2722 22.936L18.6812 19.386C18.6517 19.21 18.5487 19.0555 18.3982 18.96C18.2477 18.865 18.0632 18.8385 17.8922 18.888C17.2837 19.0625 16.6492 19.153 16.0052 19.153C16.0037 19.153 16.0027 19.153 16.0017 19.153C15.3572 19.153 14.7227 19.0625 14.1142 18.888Z" fill="url(#paint0_linear_204_1872)"/>
<path fill-rule="evenodd" clip-rule="evenodd" d="M22.9947 27.0155V24.038C22.9947 23.1405 22.2672 22.413 21.3697 22.413H10.6367C9.73922 22.413 9.01172 23.1405 9.01172 24.038V27.0155C9.01172 27.3605 9.29172 27.6405 9.63672 27.6405H22.3697C22.7147 27.6405 22.9947 27.3605 22.9947 27.0155Z" fill="url(#paint1_linear_204_1872)"/>
<path fill-rule="evenodd" clip-rule="evenodd" d="M23.1631 6.57649C22.9681 6.68749 22.8476 6.89499 22.8476 7.11949V9.53049C22.8476 9.75999 22.9736 9.97149 23.1761 10.0805C23.3781 10.1895 23.6241 10.179 23.8161 10.0525C24.5011 9.60199 25.1381 9.22699 25.7186 8.99399C25.9286 8.90999 26.1231 8.83799 26.3021 8.81499C26.3996 8.80199 26.4881 8.81049 26.5511 8.90049C26.8091 9.26899 26.7711 9.75699 26.6301 10.271C26.2831 11.535 25.2246 12.8875 23.7296 13.9515C23.3601 14.2145 22.9826 14.446 22.6041 14.644C22.4751 14.7115 22.3741 14.822 22.3176 14.956C21.8826 15.993 21.1996 16.9 20.3426 17.603C20.1246 17.782 20.0536 18.0845 20.1691 18.342C20.2841 18.5995 20.5576 18.7475 20.8366 18.7035C22.3686 18.462 24.0606 17.786 25.6386 16.663C27.8456 15.092 29.3066 13.0155 29.8186 11.15C30.2501 9.57649 30.0471 8.11399 29.2586 6.98649C28.3031 5.61999 27.0121 5.23749 25.4171 5.61149C24.7431 5.76949 23.9841 6.10849 23.1631 6.57649Z" fill="url(#paint2_linear_204_1872)"/>
<path fill-rule="evenodd" clip-rule="evenodd" d="M9.15887 7.11949C9.15887 6.89499 9.03837 6.68749 8.84337 6.57649C8.02237 6.10849 7.26337 5.76949 6.58987 5.61149C4.99437 5.23749 3.70337 5.61999 2.74787 6.98649C1.95937 8.11399 1.75637 9.57649 2.18787 11.15C2.70037 13.0155 4.16137 15.092 6.36787 16.663C7.94637 17.786 9.63787 18.462 11.1699 18.7035C11.4489 18.7475 11.7224 18.5995 11.8379 18.342C11.9534 18.0845 11.8819 17.782 11.6639 17.603C10.8069 16.9 10.1239 15.993 9.68887 14.956C9.63237 14.822 9.53137 14.7115 9.40237 14.644C9.02387 14.446 8.64637 14.2145 8.27687 13.9515C6.78187 12.8875 5.72337 11.535 5.37687 10.271C5.23537 9.75699 5.19737 9.26899 5.45537 8.90049C5.51837 8.81049 5.60687 8.80199 5.70487 8.81499C5.88337 8.83799 6.07837 8.90999 6.28787 8.99399C6.86837 9.22699 7.50537 9.60199 8.19037 10.0525C8.38237 10.179 8.62837 10.1895 8.83037 10.0805C9.03287 9.97149 9.15887 9.75999 9.15887 9.53049V7.11949Z" fill="url(#paint3_linear_204_1872)"/>
<path fill-rule="evenodd" clip-rule="evenodd" d="M24.0982 4.53299C24.0982 4.18799 23.8182 3.90799 23.4732 3.90799H8.53418C8.18918 3.90799 7.90918 4.18799 7.90918 4.53299V12.309C7.90918 16.7795 11.5332 20.403 16.0032 20.403C16.0037 20.403 16.0037 20.403 16.0042 20.403C20.4742 20.403 24.0982 16.7795 24.0982 12.309C24.0982 8.44749 24.0982 4.53299 24.0982 4.53299Z" fill="url(#paint4_linear_204_1872)"/>
<path d="M16.0036 16.826C18.7799 16.826 21.0306 14.5753 21.0306 11.799C21.0306 9.02267 18.7799 6.772 16.0036 6.772C13.2272 6.772 10.9766 9.02267 10.9766 11.799C10.9766 14.5753 13.2272 16.826 16.0036 16.826Z" fill="url(#paint5_linear_204_1872)"/>
<path fill-rule="evenodd" clip-rule="evenodd" d="M16.5199 9.01499C16.4034 8.84449 16.2099 8.74249 16.0034 8.74249C15.7969 8.74249 15.6034 8.84449 15.4874 9.01499L14.7764 10.057L13.5659 10.411C13.3674 10.469 13.2109 10.621 13.1469 10.8175C13.0829 11.014 13.1204 11.2295 13.2469 11.393L14.0179 12.391L13.9804 13.6515C13.9744 13.858 14.0709 14.0545 14.2379 14.176C14.4049 14.2975 14.6214 14.3285 14.8159 14.2585L16.0034 13.8335L17.1909 14.2585C17.3854 14.3285 17.6019 14.2975 17.7689 14.176C17.9359 14.0545 18.0324 13.858 18.0264 13.6515L17.9889 12.391L18.7604 11.393C18.8864 11.2295 18.9239 11.014 18.8599 10.8175C18.7964 10.621 18.6394 10.469 18.4409 10.411L17.2304 10.057L16.5199 9.01499Z" fill="url(#paint6_linear_204_1872)"/>
<path fill-rule="evenodd" clip-rule="evenodd" d="M25.1169 3.021C25.1169 2.5845 24.9434 2.166 24.6349 1.857C24.3259 1.5485 23.9074 1.375 23.4709 1.375C20.4339 1.375 11.4799 1.375 8.44287 1.375C8.00637 1.375 7.58787 1.5485 7.27887 1.857C6.97037 2.166 6.79688 2.5845 6.79688 3.021C6.79688 3.183 6.79688 3.35 6.79688 3.512C6.79688 3.9485 6.97037 4.367 7.27887 4.676C7.58787 4.9845 8.00637 5.158 8.44287 5.158C11.4799 5.158 20.4339 5.158 23.4709 5.158C23.9074 5.158 24.3259 4.9845 24.6349 4.676C24.9434 4.367 25.1169 3.9485 25.1169 3.512V3.021Z" fill="url(#paint7_linear_204_1872)"/>
<path fill-rule="evenodd" clip-rule="evenodd" d="M25.6474 28.5065C25.6474 27.945 25.4244 27.407 25.0279 27.01C24.6309 26.6135 24.0929 26.3905 23.5314 26.3905H8.47538C7.91438 26.3905 7.37587 26.6135 6.97937 27.01C6.58237 27.407 6.35938 27.945 6.35938 28.5065V28.5075C6.35938 29.0685 6.58237 29.607 6.97937 30.0035C7.37587 30.4005 7.91438 30.6235 8.47538 30.6235H23.5314C24.0929 30.6235 24.6309 30.4005 25.0279 30.0035C25.4244 29.607 25.6474 29.0685 25.6474 28.5075V28.5065Z" fill="url(#paint8_linear_204_1872)"/>
<defs>
<linearGradient id="paint0_linear_204_1872" x1="16.2497" y1="21.6465" x2="16.2497" y2="18.4405" gradientUnits="userSpaceOnUse">
<stop stop-color="#FFA14E"/>
<stop offset="1" stop-color="#D76500"/>
</linearGradient>
<linearGradient id="paint1_linear_204_1872" x1="16.2497" y1="24" x2="16.2497" y2="28.7706" gradientUnits="userSpaceOnUse">
<stop stop-color="#455A64"/>
<stop offset="1" stop-color="#18313C"/>
</linearGradient>
<linearGradient id="paint2_linear_204_1872" x1="26.5754" y1="12.4037" x2="21.1459" y2="12.4037" gradientUnits="userSpaceOnUse">
<stop stop-color="#FDA04E"/>
<stop offset="1" stop-color="#D66400"/>
</linearGradient>
<linearGradient id="paint3_linear_204_1872" x1="5.74987" y1="11.75" x2="10.3093" y2="11.75" gradientUnits="userSpaceOnUse">
<stop stop-color="#FDA04E"/>
<stop offset="1" stop-color="#D66400"/>
</linearGradient>
<linearGradient id="paint4_linear_204_1872" x1="15.0002" y1="6.99999" x2="15.0002" y2="2.62499" gradientUnits="userSpaceOnUse">
<stop stop-color="#FCD34F"/>
<stop offset="1" stop-color="#D6A300"/>
</linearGradient>
<linearGradient id="paint5_linear_204_1872" x1="15.8024" y1="11.7992" x2="15.8024" y2="25.6735" gradientUnits="userSpaceOnUse">
<stop stop-color="#EEF4FE"/>
<stop offset="1" stop-color="#5896FF"/>
</linearGradient>
<linearGradient id="paint6_linear_204_1872" x1="15.9999" y1="11.1322" x2="15.9999" y2="17.7681" gradientUnits="userSpaceOnUse">
<stop stop-color="#FDA04E"/>
<stop offset="1" stop-color="#D66400"/>
</linearGradient>
<linearGradient id="paint7_linear_204_1872" x1="16.2499" y1="3.90794" x2="16.2499" y2="7.64675" gradientUnits="userSpaceOnUse">
<stop stop-color="#FDA04E"/>
<stop offset="1" stop-color="#D66400"/>
</linearGradient>
<linearGradient id="paint8_linear_204_1872" x1="16.2499" y1="29" x2="16.2499" y2="35.25" gradientUnits="userSpaceOnUse">
<stop stop-color="#FED54F"/>
<stop offset="1" stop-color="#D7A500"/>
</linearGradient>
</defs>
</svg>
