<svg width="17" height="17" viewBox="0 0 17 17" fill="none" xmlns="http://www.w3.org/2000/svg">
<path d="M15.6789 7.70239L12.4876 10.8926C10.7262 12.6551 7.86872 12.6551 6.10728 10.8926C5.82968 10.616 5.61268 10.3043 5.42208 9.98264L6.90483 8.4999C6.97533 8.42883 7.06236 8.38808 7.14552 8.34018C7.24796 8.6905 7.42696 9.02206 7.70237 9.29744C8.58198 10.1776 10.0135 10.1765 10.8926 9.29744L14.0827 6.10728C14.9629 5.22711 14.9629 3.79615 14.0827 2.91655C13.2037 2.03695 11.7727 2.03695 10.8926 2.91655L9.75791 4.05228C8.83755 3.69372 7.84556 3.59734 6.88001 3.73887L9.29743 1.32147C11.06 -0.440489 13.9164 -0.440489 15.6789 1.32147C17.4404 3.08349 17.4404 5.94044 15.6789 7.70239ZM7.24246 12.9481L6.10728 14.0838C5.22767 14.9629 3.79614 14.9629 2.91653 14.0838C2.03692 13.2037 2.03692 11.7727 2.91653 10.8926L6.10728 7.70243C6.98745 6.82226 8.41785 6.82226 9.29746 7.70243C9.57231 7.97728 9.75132 8.30884 9.85488 8.6586C9.9386 8.61013 10.0245 8.57047 10.095 8.49997L11.5778 7.01779C11.3883 6.69504 11.1702 6.38438 10.8926 6.10735C9.13115 4.34539 6.27366 4.34539 4.51166 6.10735L1.32148 9.29751C-0.440492 11.06 -0.440492 13.9164 1.32148 15.6789C3.08344 17.4404 5.9404 17.4404 7.70241 15.6789L10.1204 13.261C9.15428 13.4031 8.16229 13.3061 7.24246 12.9481Z" fill="#212121"/>
</svg>
