<svg width="10" height="16" viewBox="0 0 10 16" fill="none" xmlns="http://www.w3.org/2000/svg">
<path d="M0.912128 8.06103C0.926247 8.25927 1.00641 8.44704 1.13979 8.59436L7.5398 15.7054C7.69747 15.8807 7.91834 15.9863 8.15382 15.9988C8.38931 16.0113 8.62011 15.9297 8.79547 15.772C8.97082 15.6144 9.07635 15.3935 9.08886 15.158C9.10136 14.9225 9.0198 14.6917 8.86213 14.5164L2.99546 7.99936L8.86213 1.48303C8.9402 1.39621 9.0004 1.29485 9.03931 1.18476C9.07821 1.07467 9.09505 0.95799 9.08886 0.841391C9.08267 0.724791 9.05357 0.610552 9.00323 0.505198C8.95289 0.399843 8.88229 0.305435 8.79547 0.227364C8.70864 0.149293 8.60728 0.0890887 8.49719 0.0501874C8.3871 0.0112861 8.27042 -0.00555038 8.15382 0.0006402C8.03722 0.00683078 7.92299 0.0359268 7.81763 0.0862668C7.71228 0.136607 7.61787 0.207205 7.5398 0.294031L1.13979 7.40503C1.05984 7.49342 0.998482 7.59698 0.95937 7.70956C0.920258 7.82215 0.904193 7.94145 0.912128 8.06036V8.06103Z" fill="#6C6C6C"/>
</svg>
