<svg width="19" height="20" viewBox="0 0 19 20" fill="none" xmlns="http://www.w3.org/2000/svg">
<g clip-path="url(#clip0_268_5940)">
<path d="M19 10C19 15.3516 14.748 19.6875 9.5 19.6875C8.51935 19.6875 7.57701 19.5352 6.68831 19.2539C7.0752 18.6094 7.65363 17.5547 7.86814 16.7148C7.98306 16.2617 8.45806 14.4102 8.45806 14.4102C8.76835 15.0117 9.67238 15.5234 10.6339 15.5234C13.4992 15.5234 15.5639 12.8359 15.5639 9.49609C15.5639 6.29688 13.0012 3.90234 9.70685 3.90234C5.60806 3.90234 3.42843 6.70703 3.42843 9.76562C3.42843 11.1875 4.17157 12.957 5.35524 13.5195C5.53528 13.6055 5.63105 13.5664 5.67318 13.3906C5.70383 13.2578 5.86472 12.5977 5.9375 12.293C5.96048 12.1953 5.94899 12.1094 5.87238 12.0156C5.48548 11.5273 5.17137 10.6367 5.17137 9.80469C5.17137 7.66797 6.75726 5.60156 9.46169 5.60156C11.7946 5.60156 13.4302 7.22266 13.4302 9.54297C13.4302 12.1641 12.1317 13.9805 10.4423 13.9805C9.51149 13.9805 8.81048 13.1953 9.03649 12.2305C9.30464 11.0781 9.82177 9.83594 9.82177 9.00391C9.82177 8.26172 9.43105 7.64062 8.61895 7.64062C7.66512 7.64062 6.89899 8.64453 6.89899 9.99219C6.89899 10.8516 7.18246 11.4297 7.18246 11.4297C7.18246 11.4297 6.24395 15.4844 6.07157 16.2422C5.88004 17.0781 5.95665 18.2578 6.0371 19.0234C2.50524 17.6133 0 14.1055 0 10C0 4.64844 4.25202 0.3125 9.5 0.3125C14.748 0.3125 19 4.64844 19 10Z" fill="#212121"/>
</g>
<defs>
<clipPath id="clip0_268_5940">
<rect width="19" height="20" fill="white"/>
</clipPath>
</defs>
</svg>
