<svg width="90" height="90" viewBox="0 0 90 90" fill="none" xmlns="http://www.w3.org/2000/svg">
<path d="M45 90C56.9344 90 68.3814 85.2587 76.8198 76.8198C85.2587 68.3801 90 56.9344 90 45C90 33.0656 85.2587 21.6186 76.8198 13.1802C68.3801 4.74132 56.9344 0 45 0C33.0656 0 21.6186 4.74132 13.1802 13.1802C4.74132 21.6199 0 33.0656 0 45C0 56.9344 4.74132 68.3814 13.1802 76.8198C21.6199 85.2587 33.0656 90 45 90ZM21.6414 46.1862C22.4078 45.4247 23.4447 44.9966 24.5254 44.9966C25.6068 44.9966 26.6429 45.4247 27.41 46.1862L36.8186 55.5956L60.5051 31.9092C61.5584 31.0072 62.9966 30.7004 64.3259 31.0935C65.6559 31.4866 66.6956 32.5269 67.0887 33.8563C67.4825 35.1863 67.175 36.6245 66.273 37.6778L39.6815 64.2694C38.9144 65.0317 37.8789 65.4583 36.7975 65.4583C35.7168 65.4583 34.6799 65.031 33.9136 64.2687L21.6408 51.996C20.8663 51.2282 20.4307 50.1824 20.4307 49.0915C20.4307 48.0012 20.8663 46.9554 21.6408 46.1871L21.6414 46.1862Z" fill="#F1798D"/>
</svg>
