<svg width="20" height="37" viewBox="0 0 20 37" fill="none" xmlns="http://www.w3.org/2000/svg">
<path d="M19.1977 18.1387C19.1659 18.5847 18.9856 19.0072 18.6855 19.3387L4.28545 35.3384C3.93069 35.733 3.43374 35.9704 2.9039 35.9986C2.37406 36.0267 1.85475 35.8432 1.46021 35.4884C1.06566 35.1337 0.828207 34.6367 0.800076 34.1069C0.771946 33.577 0.955448 33.0577 1.31021 32.6632L14.5102 17.9999L1.31021 3.33819C1.13455 3.14284 0.99909 2.91479 0.911562 2.66708C0.824034 2.41938 0.786145 2.15685 0.800073 1.8945C0.814002 1.63216 0.87947 1.37512 0.992735 1.13807C1.106 0.901021 1.26485 0.688604 1.4602 0.512944C1.65556 0.337285 1.88361 0.201824 2.13132 0.114296C2.37903 0.0267684 2.64155 -0.0111136 2.9039 0.00281517C3.16625 0.0167439 3.42328 0.0822099 3.66033 0.195475C3.89738 0.30874 4.10979 0.467587 4.28545 0.662945L18.6855 16.6627C18.8654 16.8616 19.0034 17.0946 19.0914 17.3479C19.1794 17.6012 19.2156 17.8696 19.1977 18.1372L19.1977 18.1387Z" fill="black"/>
</svg>
