<svg width="32" height="32" viewBox="0 0 32 32" fill="none" xmlns="http://www.w3.org/2000/svg">
<path fill-rule="evenodd" clip-rule="evenodd" d="M29.7196 17.439L29.7536 17.4245C30.0001 17.3185 30.2861 17.382 30.4651 17.5815C30.6441 17.781 30.6761 18.0725 30.5446 18.306L28.8366 21.332L30.3781 22.5025C30.5551 22.637 30.6476 22.8555 30.6206 23.076C30.5936 23.297 30.4511 23.4865 30.2466 23.5745C27.8246 24.614 25.3176 25.377 22.7706 25.863L22.7241 25.872C22.5056 25.913 22.2816 25.8355 22.1361 25.6675C21.9901 25.4995 21.9446 25.2665 22.0166 25.056C22.2366 24.411 22.3556 23.7195 22.3556 23C22.3556 22.125 22.1791 21.2905 21.8596 20.531C21.7861 20.3565 21.7956 20.1585 21.8856 19.992C21.9756 19.8255 22.1361 19.7085 22.3221 19.674C24.8421 19.2095 27.3231 18.4645 29.7181 17.4395L29.7196 17.439Z" fill="url(#paint0_linear_204_1871)"/>
<path fill-rule="evenodd" clip-rule="evenodd" d="M2.00861 17.374C2.08861 17.375 2.16961 17.3915 2.24661 17.4245L2.28211 17.4395C4.67711 18.4645 7.15811 19.2095 9.67811 19.674C9.86411 19.7085 10.0246 19.8255 10.1146 19.992C10.2046 20.1585 10.2141 20.3565 10.1406 20.531C9.82111 21.2905 9.64461 22.125 9.64461 23C9.64461 23.7195 9.76361 24.411 9.98361 25.056C10.0556 25.2665 10.0101 25.4995 9.86411 25.6675C9.74561 25.804 9.57561 25.881 9.39861 25.8825L9.38861 25.883C9.35111 25.8825 9.31361 25.879 9.27561 25.872L9.22961 25.863C6.68261 25.377 4.17511 24.614 1.75361 23.5745C1.75111 23.573 1.74811 23.572 1.74611 23.571C1.57911 23.4965 1.44811 23.3505 1.39761 23.166C1.32911 22.918 1.42011 22.656 1.62111 22.503L3.16311 21.332L1.45561 18.306C1.32411 18.0725 1.35561 17.781 1.53461 17.5815C1.65511 17.4475 1.82411 17.375 1.99661 17.3735L2.00861 17.374Z" fill="url(#paint1_linear_204_1871)"/>
<path d="M16.0215 30.627C20.2338 30.627 23.6485 27.2123 23.6485 23C23.6485 18.7877 20.2338 15.373 16.0215 15.373C11.8093 15.373 8.39453 18.7877 8.39453 23C8.39453 27.2123 11.8093 30.627 16.0215 30.627Z" fill="url(#paint2_linear_204_1871)"/>
<path fill-rule="evenodd" clip-rule="evenodd" d="M22.9759 6.66401C22.7094 6.74151 22.5264 6.98601 22.5264 7.26351C22.5264 7.54101 22.7094 7.78551 22.9759 7.86351L24.6809 8.36201L23.4119 10.004C23.3234 10.1185 23.2774 10.26 23.2819 10.405L23.3304 12.0465C23.3364 12.2465 23.4374 12.432 23.6029 12.5445C23.7679 12.6575 23.9774 12.684 24.1659 12.6165L26.1029 11.9235L28.3009 12.71C28.4954 12.7795 28.7114 12.7485 28.8789 12.627C29.0459 12.506 29.1424 12.3095 29.1359 12.103L29.0669 9.76951L30.4944 7.92251C30.6209 7.75901 30.6584 7.54351 30.5944 7.34701C30.5304 7.15051 30.3739 6.99851 30.1754 6.94051L27.9349 6.28501L26.6189 4.35651C26.5029 4.18601 26.3094 4.08401 26.1029 4.08401C25.8964 4.08401 25.7029 4.18601 25.5864 4.35651L24.2709 6.28501L22.9759 6.66401Z" fill="url(#paint3_linear_204_1871)"/>
<path fill-rule="evenodd" clip-rule="evenodd" d="M9.02417 7.86351C9.29067 7.78551 9.47367 7.54101 9.47367 7.26351C9.47367 6.98601 9.29067 6.74151 9.02417 6.66401L7.72917 6.28501L6.41367 4.35651C6.29717 4.18601 6.10367 4.08401 5.89717 4.08401C5.69067 4.08401 5.49717 4.18601 5.38117 4.35651L4.06517 6.28501L1.82467 6.94051C1.62617 6.99851 1.46967 7.15051 1.40567 7.34701C1.34167 7.54351 1.37917 7.75901 1.50567 7.92251L2.93317 9.76951L2.86417 12.103C2.85767 12.3095 2.95417 12.506 3.12117 12.627C3.28867 12.7485 3.50467 12.7795 3.69917 12.71L5.89717 11.9235L7.83417 12.6165C8.02267 12.684 8.23217 12.6575 8.39717 12.5445C8.56267 12.432 8.66367 12.2465 8.66967 12.0465L8.71817 10.405C8.72267 10.26 8.67667 10.1185 8.58817 10.004L7.31917 8.36201L9.02417 7.86351Z" fill="url(#paint4_linear_204_1871)"/>
<path fill-rule="evenodd" clip-rule="evenodd" d="M18.0569 6.94851C17.7904 7.02652 17.6074 7.27101 17.6074 7.54851C17.6074 7.82601 17.7904 8.07052 18.0569 8.14852L19.9829 8.71151L18.5209 10.6035C18.4324 10.718 18.3864 10.8595 18.3909 11.004L18.4539 13.1385C18.4599 13.338 18.5614 13.5235 18.7264 13.636C18.8919 13.749 19.1009 13.7755 19.2894 13.708L21.1789 13.032L23.7844 13.9645C23.9789 14.034 24.1949 14.003 24.3624 13.8815C24.5294 13.7605 24.6259 13.564 24.6194 13.3575L24.5379 10.5915L26.2299 8.40151C26.3564 8.23801 26.3934 8.02301 26.3299 7.82651C26.2659 7.63001 26.1089 7.47751 25.9109 7.41951L23.2549 6.64251L21.6949 4.35651C21.5784 4.18601 21.3854 4.08401 21.1789 4.08401C20.9724 4.08401 20.7789 4.18601 20.6624 4.35651L19.1029 6.64251L18.0569 6.94851Z" fill="url(#paint5_linear_204_1871)"/>
<path fill-rule="evenodd" clip-rule="evenodd" d="M13.9433 8.14852C14.2098 8.07052 14.3928 7.82601 14.3928 7.54851C14.3928 7.27101 14.2098 7.02652 13.9433 6.94851L12.8973 6.64251L11.3378 4.35651C11.2213 4.18601 11.0278 4.08401 10.8213 4.08401C10.6148 4.08401 10.4218 4.18601 10.3053 4.35651L8.74532 6.64251L6.08932 7.41951C5.89082 7.47751 5.73432 7.63001 5.67032 7.82651C5.60632 8.02301 5.64382 8.23801 5.77032 8.40151L7.46232 10.5915L7.38032 13.3575C7.37432 13.564 7.47082 13.7605 7.63782 13.8815C7.80482 14.003 8.02132 14.034 8.21582 13.9645L10.8213 13.032L12.7108 13.708C12.8993 13.7755 13.1083 13.749 13.2738 13.636C13.4388 13.5235 13.5403 13.338 13.5463 13.1385L13.6093 11.004C13.6138 10.8595 13.5678 10.718 13.4793 10.6035L12.0173 8.71151L13.9433 8.14852Z" fill="url(#paint6_linear_204_1871)"/>
<path fill-rule="evenodd" clip-rule="evenodd" d="M16.5161 4.35651C16.3996 4.18601 16.2061 4.08401 15.9996 4.08401C15.7931 4.08401 15.5996 4.18601 15.4831 4.35651L13.7456 6.90351L10.7866 7.76901C10.5881 7.82701 10.4311 7.97951 10.3676 8.17601C10.3036 8.37251 10.3411 8.58752 10.4676 8.75102L12.3526 11.191L12.2616 14.2725C12.2551 14.479 12.3516 14.6755 12.5186 14.797C12.6861 14.918 12.9021 14.949 13.0966 14.8795L15.9996 13.8405L18.9026 14.8795C19.0971 14.949 19.3131 14.918 19.4806 14.797C19.6476 14.6755 19.7441 14.479 19.7376 14.2725L19.6466 11.191L21.5316 8.75102C21.6581 8.58752 21.6956 8.37251 21.6316 8.17601C21.5681 7.97951 21.4111 7.82701 21.2126 7.76901L18.2536 6.90351L16.5161 4.35651Z" fill="url(#paint7_linear_204_1871)"/>
<path d="M16.0215 28.125C18.8519 28.125 21.1465 25.8305 21.1465 23C21.1465 20.1695 18.8519 17.875 16.0215 17.875C13.191 17.875 10.8965 20.1695 10.8965 23C10.8965 25.8305 13.191 28.125 16.0215 28.125Z" fill="url(#paint8_linear_204_1871)"/>
<defs>
<linearGradient id="paint0_linear_204_1871" x1="26.2178" y1="22" x2="20.5001" y2="23.6658" gradientUnits="userSpaceOnUse">
<stop stop-color="#F9025B"/>
<stop offset="1" stop-color="#960036"/>
</linearGradient>
<linearGradient id="paint1_linear_204_1871" x1="6.01971" y1="22.5" x2="12.2356" y2="24.3835" gradientUnits="userSpaceOnUse">
<stop stop-color="#F9025B"/>
<stop offset="1" stop-color="#960036"/>
</linearGradient>
<linearGradient id="paint2_linear_204_1871" x1="16.4975" y1="23" x2="16.4975" y2="41" gradientUnits="userSpaceOnUse">
<stop stop-color="#FFD54F"/>
<stop offset="1" stop-color="#D8A500"/>
</linearGradient>
<linearGradient id="paint3_linear_204_1871" x1="27.4999" y1="9.04251" x2="20.2499" y2="9.04251" gradientUnits="userSpaceOnUse">
<stop stop-color="#FFB43F"/>
<stop offset="1" stop-color="#CB7C00"/>
</linearGradient>
<linearGradient id="paint4_linear_204_1871" x1="4.93377" y1="9.41661" x2="12.2356" y2="9.41661" gradientUnits="userSpaceOnUse">
<stop stop-color="#FFB43F"/>
<stop offset="1" stop-color="#CB7C00"/>
</linearGradient>
<linearGradient id="paint5_linear_204_1871" x1="22.5265" y1="9.81052" x2="16.5988" y2="9.81052" gradientUnits="userSpaceOnUse">
<stop stop-color="#FFB43F"/>
<stop offset="1" stop-color="#CB7C00"/>
</linearGradient>
<linearGradient id="paint6_linear_204_1871" x1="8.75032" y1="9.94561" x2="16.6919" y2="9.94561" gradientUnits="userSpaceOnUse">
<stop stop-color="#FFB43F"/>
<stop offset="1" stop-color="#CB7C00"/>
</linearGradient>
<linearGradient id="paint7_linear_204_1871" x1="15.8852" y1="11.0626" x2="15.8852" y2="21.5" gradientUnits="userSpaceOnUse">
<stop stop-color="#FFB43F"/>
<stop offset="1" stop-color="#CB7C00"/>
</linearGradient>
<linearGradient id="paint8_linear_204_1871" x1="17.7026" y1="21.767" x2="17.7026" y2="49.9477" gradientUnits="userSpaceOnUse">
<stop stop-color="#EBF0FA"/>
<stop offset="1" stop-color="#5F90F2"/>
</linearGradient>
</defs>
</svg>
