<svg width="32" height="32" viewBox="0 0 32 32" fill="none" xmlns="http://www.w3.org/2000/svg">
<path fill-rule="evenodd" clip-rule="evenodd" d="M13.3574 15.3355C13.3574 15.531 13.4489 15.7155 13.6049 15.8335C13.7604 15.9515 13.9629 15.99 14.1509 15.9375C14.7394 15.7725 15.3594 15.6845 16.0004 15.6845C16.6414 15.6845 17.2614 15.7725 17.8499 15.9375C18.0379 15.99 18.2404 15.9515 18.3959 15.8335C18.5519 15.7155 18.6434 15.531 18.6434 15.3355V14.2055C18.6434 13.08 17.7314 12.168 16.6059 12.168H15.3949C14.2694 12.168 13.3574 13.08 13.3574 14.2055V15.3355V15.3355Z" fill="url(#paint0_linear_204_1870)"/>
<path d="M15.9998 30.625C20.4708 30.625 24.0953 27.0005 24.0953 22.5295C24.0953 18.0585 20.4708 14.434 15.9998 14.434C11.5288 14.434 7.9043 18.0585 7.9043 22.5295C7.9043 27.0005 11.5288 30.625 15.9998 30.625Z" fill="url(#paint1_linear_204_1870)"/>
<path fill-rule="evenodd" clip-rule="evenodd" d="M23.6875 4.01801C23.6875 3.67301 23.4075 3.39301 23.0625 3.39301H8.93652C8.59152 3.39301 8.31152 3.67301 8.31152 4.01801V8.48251C8.31152 9.06601 8.62402 9.60451 9.13002 9.89351L15.1935 13.358C15.693 13.6435 16.306 13.6435 16.8055 13.358L22.869 9.89351C23.375 9.60451 23.6875 9.06601 23.6875 8.48251V4.01801Z" fill="url(#paint2_linear_204_1870)"/>
<path d="M16.0005 28.529C19.3139 28.529 22 25.8429 22 22.5295C22 19.2161 19.3139 16.53 16.0005 16.53C12.687 16.53 10.001 19.2161 10.001 22.5295C10.001 25.8429 12.687 28.529 16.0005 28.529Z" fill="url(#paint3_linear_204_1870)"/>
<path d="M15.996 25.356C15.6245 25.356 15.3035 25.311 15.0325 25.2205C14.762 25.1305 14.5375 25.0125 14.36 24.8665C14.182 24.7205 14.048 24.561 13.958 24.3885C13.8675 24.216 13.82 24.045 13.8145 23.875C13.8145 23.8275 13.832 23.789 13.8665 23.7595C13.901 23.7305 13.942 23.716 13.9895 23.716H14.7065C14.7595 23.716 14.8045 23.7265 14.8415 23.7475C14.879 23.769 14.9105 23.8115 14.937 23.875C14.985 24.0185 15.063 24.1325 15.172 24.2175C15.281 24.3025 15.407 24.362 15.55 24.3965C15.6935 24.431 15.845 24.4485 16.004 24.4485C16.3225 24.4485 16.576 24.3725 16.7645 24.2215C16.9525 24.07 17.047 23.854 17.047 23.5725C17.047 23.2915 16.9595 23.0885 16.784 22.9635C16.609 22.839 16.365 22.7765 16.0515 22.7765H15.2315C15.1735 22.7765 15.1255 22.759 15.0885 22.7245C15.0515 22.69 15.0325 22.6435 15.0325 22.5855V22.251C15.0325 22.198 15.0445 22.1515 15.0685 22.1115C15.0925 22.072 15.1175 22.0385 15.144 22.012L16.569 20.619H14.2925C14.234 20.619 14.1875 20.6005 14.153 20.563C14.1185 20.526 14.101 20.481 14.101 20.428V19.9025C14.101 19.844 14.1185 19.796 14.153 19.759C14.1875 19.722 14.234 19.7035 14.2925 19.7035H17.7075C17.766 19.7035 17.814 19.722 17.851 19.759C17.888 19.796 17.907 19.844 17.907 19.9025V20.38C17.907 20.428 17.896 20.4705 17.875 20.5075C17.8535 20.5445 17.83 20.5765 17.8035 20.603L16.426 22.02L16.5215 22.028C16.845 22.0545 17.133 22.1275 17.3855 22.247C17.6375 22.3665 17.834 22.54 17.9745 22.7685C18.115 22.9965 18.1855 23.2835 18.1855 23.6285C18.1855 23.989 18.091 24.2985 17.903 24.556C17.7145 24.8135 17.4555 25.011 17.1265 25.149C16.7975 25.287 16.4205 25.356 15.996 25.356V25.356Z" fill="url(#paint4_linear_204_1870)"/>
<path fill-rule="evenodd" clip-rule="evenodd" d="M14.1436 12.758L12.8936 12.044V3.39301H14.1436V12.758Z" fill="url(#paint5_linear_204_1870)"/>
<path fill-rule="evenodd" clip-rule="evenodd" d="M19.1064 12.044L17.8564 12.758V3.39301H19.1064V12.044Z" fill="url(#paint6_linear_204_1870)"/>
<path fill-rule="evenodd" clip-rule="evenodd" d="M6.79883 3.009C6.79883 3.4425 6.97083 3.858 7.27733 4.1645C7.58383 4.471 7.99933 4.643 8.43283 4.643C11.4738 4.643 20.5268 4.643 23.5678 4.643C24.0013 4.643 24.4168 4.471 24.7233 4.1645C25.0298 3.858 25.2018 3.4425 25.2018 3.009C25.2018 2.5755 25.0298 2.16 24.7233 1.8535C24.4168 1.547 24.0013 1.375 23.5678 1.375C20.5268 1.375 11.4738 1.375 8.43283 1.375C7.99933 1.375 7.58383 1.547 7.27733 1.8535C6.97083 2.16 6.79883 2.5755 6.79883 3.009V3.009Z" fill="url(#paint7_linear_204_1870)"/>
<defs>
<linearGradient id="paint0_linear_204_1870" x1="15.9632" y1="13.25" x2="15.9632" y2="15.5" gradientUnits="userSpaceOnUse">
<stop stop-color="#FEA14E"/>
<stop offset="1" stop-color="#D76500"/>
</linearGradient>
<linearGradient id="paint1_linear_204_1870" x1="-33.5002" y1="24.4165" x2="-33.5002" y2="54.0854" gradientUnits="userSpaceOnUse">
<stop stop-color="#EBF0FA"/>
<stop offset="1" stop-color="#5F90F2"/>
</linearGradient>
<linearGradient id="paint2_linear_204_1870" x1="-34.5559" y1="7.36986" x2="-34.5559" y2="2.53113" gradientUnits="userSpaceOnUse">
<stop stop-color="#FC015C"/>
<stop offset="1" stop-color="#970037"/>
</linearGradient>
<linearGradient id="paint3_linear_204_1870" x1="-33.9612" y1="21.8294" x2="-33.9612" y2="37.2591" gradientUnits="userSpaceOnUse">
<stop stop-color="#FFD54F"/>
<stop offset="1" stop-color="#D8A500"/>
</linearGradient>
<linearGradient id="paint4_linear_204_1870" x1="-33.6201" y1="22.2769" x2="-33.6201" y2="37.976" gradientUnits="userSpaceOnUse">
<stop stop-color="#455A64"/>
<stop offset="1" stop-color="#18313C"/>
</linearGradient>
<linearGradient id="paint5_linear_204_1870" x1="13.5187" y1="7.50001" x2="13.5187" y2="-0.749995" gradientUnits="userSpaceOnUse">
<stop stop-color="#EEF4FE"/>
<stop offset="1" stop-color="#5896FF"/>
</linearGradient>
<linearGradient id="paint6_linear_204_1870" x1="13.5185" y1="7.50001" x2="13.5185" y2="-0.749995" gradientUnits="userSpaceOnUse">
<stop stop-color="#EEF4FE"/>
<stop offset="1" stop-color="#5896FF"/>
</linearGradient>
<linearGradient id="paint7_linear_204_1870" x1="16.2503" y1="2.66989" x2="16.2503" y2="7.10403" gradientUnits="userSpaceOnUse">
<stop stop-color="#455A64"/>
<stop offset="1" stop-color="#18313C"/>
</linearGradient>
</defs>
</svg>
