<svg width="18" height="15" viewBox="0 0 18 15" fill="none" xmlns="http://www.w3.org/2000/svg">
<path d="M0.514636 0.00086357C0.372878 0.0173215 0.241704 0.0915567 0.146599 0.209153C0.0514928 0.326749 -0.000754054 0.479308 8.22504e-06 0.637188V13.3637C2.34581e-05 13.5324 0.0605525 13.6943 0.168283 13.8136C0.276013 13.9329 0.422122 14 0.574476 14H17.4255C17.5779 14 17.724 13.9329 17.8317 13.8136C17.9395 13.6943 18 13.5324 18 13.3637V0.637188C18 0.468429 17.9395 0.306591 17.8317 0.187261C17.724 0.0679305 17.5779 0.000880443 17.4255 0.00086357H0.574476C0.554543 -0.000287857 0.534569 -0.000287857 0.514636 0.00086357V0.00086357ZM1.14894 1.27351H16.8511V12.7274H1.14894V1.27351Z" fill="#212121"/>
<path d="M0.699584 0.206635C0.585479 0.219243 0.477334 0.270017 0.389059 0.352416C0.300784 0.434815 0.236419 0.545065 0.204242 0.669002C0.172065 0.792939 0.173549 0.924882 0.208503 1.04786C0.243457 1.17084 0.310282 1.27924 0.400381 1.35909L8.63443 8.90733C8.73726 9.00262 8.86629 9.05472 8.99946 9.05472C9.13262 9.05472 9.26165 9.00262 9.36448 8.90733L17.5985 1.35909C17.6571 1.30511 17.7056 1.23866 17.7414 1.16355C17.7771 1.08844 17.7994 1.00613 17.8069 0.921325C17.8144 0.83652 17.807 0.750875 17.7851 0.669291C17.7632 0.587707 17.7273 0.511776 17.6794 0.445835C17.6314 0.379894 17.5724 0.325239 17.5057 0.284982C17.439 0.244724 17.3659 0.219647 17.2906 0.211203C17.2153 0.202759 17.1393 0.21111 17.0669 0.235765C16.9944 0.26042 16.927 0.300904 16.8685 0.354904L8.99946 7.56618L1.13043 0.354904C1.07119 0.298771 1.00249 0.256703 0.928452 0.231224C0.854412 0.205745 0.776565 0.19738 0.699584 0.206635Z" fill="#212121"/>
<path d="M7.25201 6.46472C7.1235 6.47332 7.00127 6.53029 6.90494 6.62649L0.394293 12.8807C0.330786 12.9333 0.277571 13.0001 0.237958 13.0769C0.198345 13.1536 0.173183 13.2387 0.164036 13.3269C0.15489 13.4151 0.161955 13.5045 0.184793 13.5895C0.207631 13.6744 0.245752 13.7532 0.296784 13.8209C0.347817 13.8886 0.410669 13.9437 0.481429 13.9828C0.55219 14.0219 0.629344 14.0443 0.708093 14.0484C0.786841 14.0525 0.865497 14.0383 0.939167 14.0067C1.01284 13.9751 1.07995 13.9268 1.13632 13.8647L7.64696 7.61043C7.74029 7.52387 7.807 7.40637 7.83759 7.27464C7.86818 7.1429 7.8611 7.00366 7.81734 6.87673C7.77359 6.7498 7.69539 6.64165 7.59389 6.56767C7.49238 6.4937 7.37275 6.45767 7.25201 6.46472Z" fill="#212121"/>
<path d="M10.6695 6.46069C10.5553 6.47116 10.4465 6.51983 10.3571 6.60043C10.2677 6.68102 10.2017 6.78988 10.1676 6.91302C10.1336 7.03616 10.1329 7.16797 10.1658 7.29152C10.1987 7.41506 10.2637 7.52471 10.3523 7.60639L16.8629 13.8607C16.9193 13.9227 16.9864 13.9711 17.0601 14.0027C17.1338 14.0343 17.2124 14.0484 17.2912 14.0443C17.3699 14.0402 17.4471 14.0179 17.5178 13.9788C17.5886 13.9396 17.6514 13.8845 17.7025 13.8169C17.7535 13.7492 17.7916 13.6704 17.8145 13.5854C17.8373 13.5004 17.8444 13.4111 17.8352 13.3229C17.8261 13.2347 17.8009 13.1496 17.7613 13.0728C17.7217 12.9961 17.6685 12.9293 17.605 12.8767L11.0943 6.62245C11.0368 6.56478 10.9695 6.52074 10.8965 6.49295C10.8235 6.46516 10.7463 6.45419 10.6695 6.46069Z" fill="#212121"/>
</svg>
