<svg width="48" height="48" viewBox="0 0 48 48" fill="none" xmlns="http://www.w3.org/2000/svg">
<path d="M43.1936 14.3999C43.1936 11.8538 42.1808 9.41203 40.378 7.6117C38.5752 5.81137 36.1302 4.7999 33.5807 4.7999C31.0311 4.7999 28.5861 5.81128 26.7833 7.6117C24.9806 9.41212 23.9678 11.8538 23.9678 14.3999C23.9678 16.946 24.9805 19.3878 26.7833 21.1882C28.5862 22.9885 31.0311 24 33.5807 24C36.1295 23.9971 38.5727 22.9849 40.3751 21.1853C42.1772 19.3853 43.1907 16.9453 43.1936 14.3999ZM28.4831 18.3599L27.3824 19.4591C26.3839 18.2452 25.7673 16.7631 25.611 15.1998H27.1724V13.5998H25.611C25.7673 12.0366 26.3838 10.5544 27.3824 9.34053L28.4831 10.4398L29.6157 9.30871L28.5149 8.20946C29.7305 7.21197 31.2146 6.59657 32.78 6.4405V7.99982H34.3821V6.4405C35.9474 6.59657 37.4316 7.21193 38.6471 8.20946L37.5464 9.30871L38.679 10.4398L39.7797 9.34053C40.7782 10.5544 41.3948 12.0366 41.551 13.5998H39.9896V15.1998H41.551C41.3948 16.7631 40.7782 18.2452 39.7797 19.4591L38.679 18.3599L37.5464 19.491L38.6471 20.5902C37.4316 21.5877 35.9474 22.2031 34.3821 22.3592V20.7999H32.78V22.3592C31.2146 22.2031 29.7305 21.5877 28.5149 20.5902L29.6157 19.491L28.4831 18.3599Z" fill="black"/>
<path d="M33.5806 16.8001C34.3416 16.8016 35.0583 16.4419 35.5114 15.8312C35.9645 15.2204 36.1004 14.4312 35.8776 13.7043C35.6548 12.9775 35.0994 12.3996 34.3816 12.1472V9.6001H32.7795V12.1472C32.1011 12.3894 31.5672 12.9226 31.3247 13.6001H29.5752V15.2001H31.3247C31.4899 15.6666 31.7953 16.0705 32.199 16.3569C32.6028 16.6433 33.0852 16.7979 33.5805 16.8001L33.5806 16.8001ZM33.5806 13.6001C33.9046 13.6001 34.1968 13.7951 34.3205 14.094C34.4446 14.393 34.3763 14.7369 34.147 14.9658C33.9178 15.1948 33.5734 15.263 33.2741 15.139C32.9748 15.0155 32.7795 14.7237 32.7795 14.4001C32.7795 13.9583 33.1382 13.6001 33.5806 13.6001Z" fill="black"/>
<path d="M29.8426 32.5322C29.6727 32.6836 29.5755 32.9004 29.5751 33.1279V46.3997H13.5536V39.1997C13.5536 38.9876 13.4692 38.784 13.319 38.634C13.1688 38.484 12.965 38.3997 12.7525 38.3997H7.9461C7.30882 38.3997 6.69725 38.1468 6.24672 37.6968C5.7962 37.2468 5.54292 36.6361 5.54292 35.9997V30.3997C5.54292 30.1876 5.45852 29.984 5.30832 29.834C5.15812 29.684 4.95427 29.5997 4.74185 29.5997H1.60228L6.96948 22.8997C7.0832 22.7579 7.14507 22.5815 7.14507 22.3997C7.13863 19.0522 8.37067 15.8204 10.6047 13.325C12.8387 10.8296 15.9175 9.24646 19.2492 8.87965L19.0729 7.28925H19.0732C15.3976 7.69282 11.9955 9.42137 9.50427 12.1511C7.01343 14.8804 5.60473 18.4233 5.54257 22.1159L0.350964 28.6006C0.0981268 28.9159 -0.0256142 29.3152 0.00442381 29.7181C0.0341066 30.121 0.215423 30.4974 0.511894 30.7724C0.808364 31.047 1.19781 31.1999 1.6019 31.1999H3.9404V35.9999C3.94183 37.0603 4.36418 38.0771 5.11482 38.8271C5.86583 39.5767 6.88396 39.9985 7.94577 39.9999H11.9511V47.2C11.9511 47.4121 12.0355 47.6157 12.1857 47.7657C12.3359 47.9157 12.5398 48 12.7522 48H30.3758C30.5883 48 30.7921 47.9157 30.9423 47.7657C31.0925 47.6157 31.1769 47.4121 31.1769 47.2V33.4801C32.0341 32.6769 32.7959 31.7776 33.4464 30.8002L32.1118 29.9202C31.4691 30.8834 30.7066 31.7613 29.8423 32.5323L29.8426 32.5322Z" fill="black"/>
<path d="M32.7793 0H34.3814V1.60001H32.7793V0Z" fill="black"/>
<path d="M29.0742 0.697851L30.6216 0.283203L31.0372 1.82927L29.4898 2.24391L29.0742 0.697851Z" fill="black"/>
<path d="M25.6777 2.3293L27.0653 1.5293L27.8664 2.91499L26.4788 3.715L25.6777 2.3293Z" fill="black"/>
<path d="M22.8184 4.78283L23.9513 3.65176L25.0839 4.7832L23.9509 5.91426L22.8184 4.78283Z" fill="black"/>
<path d="M20.6924 7.89311L21.4935 6.50742L22.881 7.30742L22.0799 8.69311L20.6924 7.89311Z" fill="black"/>
<path d="M19.4453 11.4459L19.8601 9.90057L21.4076 10.3149L20.9927 11.8602L19.4453 11.4459Z" fill="black"/>
<path d="M19.1611 13.6001H20.7633V15.2001H19.1611V13.6001Z" fill="black"/>
<path d="M19.4463 17.3541L20.9937 16.9398L21.4085 18.4852L19.8611 18.8995L19.4463 17.3541Z" fill="black"/>
<path d="M20.6924 20.9069L22.0799 20.1069L22.881 21.4926L21.4935 22.2926L20.6924 20.9069Z" fill="black"/>
<path d="M22.8184 24.0174L23.9513 22.8859L25.0843 24.0174L23.9513 25.1488L22.8184 24.0174Z" fill="black"/>
<path d="M25.6768 26.4715L26.4778 25.0858L27.8654 25.8858L27.0643 27.2715L25.6768 26.4715Z" fill="black"/>
<path d="M29.0742 28.1026L29.4898 26.5565L31.0372 26.9712L30.6216 28.5173L29.0742 28.1026Z" fill="black"/>
<path d="M32.7793 27.2002H34.3814V28.8002H32.7793V27.2002Z" fill="black"/>
<path d="M36.124 26.9715L37.6714 26.5568L38.087 28.1029L36.5396 28.5175L36.124 26.9715Z" fill="black"/>
<path d="M39.2949 25.8845L40.6825 25.0845L41.4835 26.4702L40.096 27.2702L39.2949 25.8845Z" fill="black"/>
<path d="M42.0771 24.0166L43.2101 22.8856L44.3427 24.017L43.2097 25.1481L42.0771 24.0166Z" fill="black"/>
<path d="M44.2803 21.493L45.0813 20.1073L46.4689 20.9073L45.6678 22.293L44.2803 21.493Z" fill="black"/>
<path d="M45.7529 18.4859L46.1678 16.9406L47.7152 17.3549L47.3003 18.9002L45.7529 18.4859Z" fill="black"/>
<path d="M46.3975 13.6001H47.9996V15.2001H46.3975V13.6001Z" fill="black"/>
<path d="M45.7529 10.3149L47.3003 9.90057L47.7152 11.4459L46.1678 11.8602L45.7529 10.3149Z" fill="black"/>
<path d="M44.2803 7.30724L45.6678 6.50723L46.4689 7.89293L45.0813 8.69293L44.2803 7.30724Z" fill="black"/>
<path d="M42.0762 4.78387L43.2091 3.65244L44.3421 4.78387L43.2091 5.9153L42.0762 4.78387Z" fill="black"/>
<path d="M39.2949 2.91499L40.096 1.5293L41.4835 2.3293L40.6825 3.715L39.2949 2.91499Z" fill="black"/>
<path d="M36.124 1.82847L36.5396 0.28241L38.087 0.697415L37.6714 2.24348L36.124 1.82847Z" fill="black"/>
</svg>
