<svg width="77" height="35" viewBox="0 0 77 35" fill="none" xmlns="http://www.w3.org/2000/svg">
<path d="M0 27.5066H8.01448C13.3249 27.5066 17.2019 25.2261 17.2019 20.4695C17.2019 17.2116 15.2145 15.3546 12.4778 14.7682V14.6053C14.6281 13.8885 15.8986 11.7057 15.8986 9.42518C15.8986 5.09215 12.3475 3.49577 7.42805 3.49577H0V27.5066ZM3.77919 13.5302V6.46047H7.10226C10.4905 6.46047 12.1846 7.40527 12.1846 9.91387C12.1846 12.1618 10.6534 13.5302 7.00453 13.5302H3.77919ZM3.77919 24.5419V16.3645H7.59095C11.4027 16.3645 13.4878 17.57 13.4878 20.274C13.4878 23.2062 11.3376 24.5419 7.59095 24.5419H3.77919ZM26.8286 27.9302C29.1743 27.9302 31.2268 27.1483 32.8884 26.0406L31.5852 23.6623C30.282 24.5093 28.9137 24.998 27.3173 24.998C24.2223 24.998 22.0721 22.9455 21.7789 19.5247H33.4096C33.5074 19.0686 33.6051 18.3519 33.6051 17.6026C33.6051 12.5528 31.0313 9.13197 26.2748 9.13197C22.1047 9.13197 18.0974 12.7483 18.0974 18.5474C18.0974 24.4768 21.9743 27.9302 26.8286 27.9302ZM21.7463 16.9184C22.1047 13.7908 24.092 12.0641 26.3399 12.0641C28.9463 12.0641 30.3472 13.8559 30.3472 16.9184H21.7463ZM35.7531 27.5066H39.4997V14.8007C41.0635 13.2044 42.2038 12.3573 43.8653 12.3573C45.983 12.3573 46.8952 13.5953 46.8952 16.6903V27.5066H50.6418V16.2342C50.6418 11.6731 48.9477 9.13197 45.1359 9.13197C42.6925 9.13197 40.868 10.4677 39.2065 12.0641H39.1087L38.8155 9.58807H35.7531V27.5066ZM57.7611 27.9302C58.7059 27.9302 59.3249 27.7998 59.7811 27.6369L59.2924 24.8026C58.9666 24.8677 58.8363 24.8677 58.6734 24.8677C58.2173 24.8677 57.7937 24.5093 57.7937 23.4994V1.54102H54.0471V23.3039C54.0471 26.2035 55.0571 27.9302 57.7611 27.9302ZM62.5291 34.9998C66.3083 34.9998 68.1979 32.4261 69.5988 28.5817L76.1798 9.58807H72.5309L69.6639 18.808C69.2078 20.4369 68.7191 22.2288 68.263 23.8578H68.1002C67.5463 22.1962 66.9925 20.4044 66.4712 18.808L63.1481 9.58807H59.3038L66.406 27.3763L66.0477 28.6143C65.3961 30.5365 64.2558 31.97 62.3011 31.97C61.8449 31.97 61.3237 31.8071 60.9979 31.7093L60.2811 34.6415C60.9002 34.8695 61.6169 34.9998 62.5291 34.9998Z" fill="white"/>
<path d="M74.5 8C75.8807 8 77 6.88071 77 5.5C77 4.11929 75.8807 3 74.5 3C73.1193 3 72 4.11929 72 5.5C72 6.88071 73.1193 8 74.5 8Z" fill="#017AFB"/>
</svg>
