<svg width="76" height="34" viewBox="0 0 76 34" fill="none" xmlns="http://www.w3.org/2000/svg">
<path d="M0 26.7209H7.89036C13.1185 26.7209 16.9355 24.5055 16.9355 19.8848C16.9355 16.72 14.9789 14.916 12.2846 14.3464V14.1881C14.4015 13.4919 15.6524 11.3714 15.6524 9.15603C15.6524 4.9468 12.1563 3.39603 7.31302 3.39603H0V26.7209ZM3.72066 13.1437V6.27603H6.99227C10.328 6.27603 11.9959 7.19383 11.9959 9.63076C11.9959 11.8145 10.4884 13.1437 6.89605 13.1437H3.72066ZM3.72066 23.8409V15.8971H7.47339C11.2261 15.8971 13.2789 17.0681 13.2789 19.6949C13.2789 22.5433 11.162 23.8409 7.47339 23.8409H3.72066ZM26.4131 27.1323C28.7225 27.1323 30.7432 26.3727 32.379 25.2967L31.096 22.9864C29.8131 23.8092 28.4659 24.2839 26.8943 24.2839C23.8472 24.2839 21.7302 22.2901 21.4416 18.967H32.8922C32.9884 18.5239 33.0847 17.8277 33.0847 17.0998C33.0847 12.1943 30.5508 8.8712 25.8679 8.8712C21.7623 8.8712 17.8171 12.3842 17.8171 18.0176C17.8171 23.7776 21.634 27.1323 26.4131 27.1323ZM21.4095 16.4352C21.7623 13.3969 23.7189 11.7195 25.932 11.7195C28.498 11.7195 29.8772 13.4602 29.8772 16.4352H21.4095ZM35.1994 26.7209H38.888V14.378C40.4276 12.8272 41.5502 12.0044 43.186 12.0044C45.2708 12.0044 46.1689 13.207 46.1689 16.2136V26.7209H49.8575V15.7705C49.8575 11.3398 48.1896 8.8712 44.4369 8.8712C42.0313 8.8712 40.2351 10.1688 38.5993 11.7195H38.5031L38.2144 9.31427H35.1994V26.7209ZM56.8666 27.1323C57.7968 27.1323 58.4062 27.0057 58.8552 26.8475L58.3741 24.0941C58.0534 24.1574 57.9251 24.1574 57.7647 24.1574C57.3157 24.1574 56.8987 23.8092 56.8987 22.8281V1.49713H53.2101V22.6382C53.2101 25.4549 54.2044 27.1323 56.8666 27.1323ZM61.5607 34C65.2814 34 67.1417 31.4998 68.5209 27.7653L75 9.31427H71.4076L68.5851 18.2708C68.136 19.8532 67.6549 21.5938 67.2059 23.1763H67.0455C66.5002 21.5622 65.955 19.8215 65.4418 18.2708L62.1702 9.31427H58.3853L65.3776 26.5943L65.0248 27.7969C64.3833 29.6642 63.2607 31.0567 61.3362 31.0567C60.8872 31.0567 60.374 30.8984 60.0532 30.8035L59.3476 33.6519C59.957 33.8734 60.6626 34 61.5607 34Z" fill="#343745"/>
<path d="M73.346 7.77142C74.7054 7.77142 75.8073 6.68411 75.8073 5.34285C75.8073 4.00158 74.7054 2.91428 73.346 2.91428C71.9867 2.91428 70.8848 4.00158 70.8848 5.34285C70.8848 6.68411 71.9867 7.77142 73.346 7.77142Z" fill="#017AFB"/>
</svg>
