<svg width="26" height="49" viewBox="0 0 26 49" fill="none" xmlns="http://www.w3.org/2000/svg">
<path d="M25.264 23.819C25.2216 23.2243 24.9812 22.6609 24.581 22.219L5.38097 0.885956C4.90796 0.359899 4.24535 0.0432904 3.5389 0.00578308C2.83245 -0.0317242 2.14003 0.212938 1.61397 0.685951C1.08791 1.15896 0.771306 1.82158 0.733799 2.52803C0.696292 3.23448 0.940961 3.92689 1.41397 4.45295L19.014 24.004L1.41397 43.553C1.17976 43.8134 0.999154 44.1175 0.88245 44.4478C0.765746 44.778 0.715227 45.1281 0.733799 45.4779C0.752371 45.8277 0.839661 46.1704 0.990681 46.4865C1.1417 46.8025 1.35349 47.0857 1.61397 47.32C1.87445 47.5542 2.17851 47.7348 2.50879 47.8515C2.83907 47.9682 3.1891 48.0187 3.5389 48.0001C3.8887 47.9816 4.23141 47.8943 4.54747 47.7432C4.86354 47.5922 5.14676 47.3804 5.38097 47.12L24.581 25.787C24.8208 25.5218 25.0049 25.2111 25.1223 24.8734C25.2396 24.5356 25.2878 24.1777 25.264 23.821V23.819Z" fill="#343745"/>
</svg>
