<svg width="80" height="80" viewBox="0 0 80 80" fill="none" xmlns="http://www.w3.org/2000/svg">
<path fill-rule="evenodd" clip-rule="evenodd" d="M40 0C62.0751 0 80 17.9249 80 40C80 62.0751 62.0751 80 40 80C17.9249 80 0 62.0751 0 40C0 17.9249 17.9249 0 40 0ZM18.449 41.3469L31.9177 54.815C32.662 55.5599 33.8679 55.5599 34.6129 54.815L61.55 27.8779C62.293 27.1349 62.293 25.9277 61.55 25.1847C60.8051 24.4417 59.5998 24.4417 58.8549 25.1847L33.2647 50.7749L21.1448 38.6524C20.3999 37.9101 19.1946 37.9101 18.4496 38.6524C17.7066 39.3954 17.7066 40.6033 18.4496 41.3463L18.449 41.3469Z" fill="#017AFB"/>
</svg>
