<svg width="34" height="28" viewBox="0 0 34 28" fill="none" xmlns="http://www.w3.org/2000/svg">
<path d="M29.5759 5.30401H14.9399V3.764C14.8636 2.92704 14.461 2.15373 13.8192 1.61111C13.1774 1.06849 12.3479 0.800126 11.5099 0.864008H4.42293C3.58492 0.800126 2.75542 1.06849 2.11363 1.61111C1.47184 2.15373 1.06928 2.92704 0.99292 3.764V24.235C1.06928 25.072 1.47184 25.8453 2.11363 26.3879C2.75542 26.9305 3.58492 27.1989 4.42293 27.135H29.5759C30.4139 27.1989 31.2434 26.9305 31.8852 26.3879C32.527 25.8453 32.9296 25.072 33.0059 24.235V8.204C32.9296 7.36704 32.527 6.5937 31.8852 6.05108C31.2434 5.50846 30.4139 5.24013 29.5759 5.30401Z" fill="url(#paint0_linear_116_4280)"/>
<path d="M21.9319 16.336H20.0319V11.312C20.0522 11.1105 19.9933 10.9089 19.8677 10.75C19.7421 10.591 19.5597 10.487 19.3589 10.46H14.6359C14.4351 10.4868 14.2525 10.5907 14.1269 10.7497C14.0013 10.9087 13.9424 11.1104 13.9629 11.312V16.34H12.0629C11.5949 16.34 11.4439 16.581 11.7279 16.876L12.3599 17.53L13.3939 18.601L14.5239 19.772L15.5579 20.843L16.4789 21.796C16.5458 21.8656 16.6261 21.921 16.715 21.9589C16.8038 21.9967 16.8994 22.0162 16.9959 22.0162C17.0925 22.0162 17.1881 21.9967 17.2769 21.9589C17.3657 21.921 17.446 21.8656 17.5129 21.796L18.4339 20.843C18.7179 20.548 19.1829 20.065 19.4679 19.772L20.5979 18.601L21.6319 17.53L22.2629 16.876C22.5519 16.577 22.4009 16.336 21.9319 16.336Z" fill="white"/>
<defs>
<linearGradient id="paint0_linear_116_4280" x1="16.9994" y1="28.5113" x2="16.9994" y2="3.64143" gradientUnits="userSpaceOnUse">
<stop stop-color="#A269F7"/>
<stop offset="1" stop-color="#E0A5FB"/>
</linearGradient>
</defs>
</svg>
