<svg width="77" height="80" viewBox="0 0 77 80" fill="none" xmlns="http://www.w3.org/2000/svg">
<path d="M59.3559 33.1653V26.4899C59.3559 25.806 58.8046 25.2529 58.1255 25.2529H48.4145V20.3958C48.4145 19.7119 47.8632 19.1589 47.184 19.1589H2.93291C2.25373 19.1589 1.70244 19.7125 1.70244 20.3958V38.8401C1.70244 44.1286 3.67372 49.1362 7.18799 52.9936H1.56446C0.885282 52.9936 0.333984 53.5473 0.333984 54.2306C0.333984 59.0917 4.81839 63.0461 10.3298 63.0461L30.5422 63.0467C33.4838 72.8439 42.5402 80 53.2313 80C66.2983 80 76.9297 69.3126 76.9297 56.1765C76.9292 45.1694 69.4627 35.8862 59.3562 33.1641L59.3559 33.1653ZM56.8944 27.7268V32.6397C55.6998 32.4526 54.4771 32.3545 53.2309 32.3545C51.5804 32.3545 49.9696 32.5259 48.4144 32.85V27.7274L56.8942 27.728L56.8944 27.7268ZM13.6253 28.6092L16.8899 31.4626V36.5622H10.3601V31.4626L13.6253 28.6092ZM4.16401 38.8416V21.6328H12.3949V26.4065L8.3215 29.9652C8.05341 30.2003 7.89807 30.5408 7.89807 30.8988V37.7986C7.89807 38.4825 8.44936 39.0356 9.12854 39.0356H18.1193C18.7985 39.0356 19.3498 38.482 19.3498 37.7986V30.8988C19.3498 30.5408 19.1956 30.2003 18.9264 29.9652L14.8547 26.4065L14.8553 21.6328H45.9521V33.5075C37.4071 36.2888 30.9759 43.8222 29.7512 52.9953H10.7318C6.55641 49.4411 4.16388 44.3094 4.16388 38.8418L4.16401 38.8416ZM10.3304 60.5738C6.67872 60.5738 3.62503 58.3756 2.94018 55.4692H29.5517C29.545 55.7048 29.5343 55.9399 29.5343 56.1779C29.5343 57.6798 29.6802 59.1485 29.9454 60.5738L10.3304 60.5738ZM53.2319 77.5271C41.5227 77.5271 31.9958 67.9499 31.9958 56.1788C31.9958 44.4072 41.5227 34.8292 53.2319 34.8292C64.9411 34.8292 74.468 44.4075 74.468 56.1788C74.468 67.9505 64.94 77.5271 53.2319 77.5271V77.5271ZM53.2319 36.3071C42.3326 36.3071 33.4646 45.2214 33.4646 56.1788C33.4646 67.1357 42.3314 76.0491 53.2319 76.0491C64.1312 76.0491 72.9993 67.1348 72.9993 56.1774C72.9987 45.2205 64.1318 36.3071 53.2319 36.3071V36.3071ZM62.9243 70.5818L62.9221 70.5784C62.5822 69.9853 61.829 69.7834 61.2413 70.1245C60.6563 70.4645 60.4544 71.2149 60.787 71.8053C58.851 72.7553 56.7175 73.3518 54.4624 73.5119V72.3995C54.4624 71.7156 53.9111 71.1625 53.2319 71.1625C52.5527 71.1625 52.0014 71.7162 52.0014 72.3995V73.5119C49.7452 73.3512 47.6124 72.7547 45.6757 71.8047C46.0077 71.2144 45.8064 70.4646 45.2214 70.1245C44.6331 69.784 43.8799 69.9853 43.5406 70.5784L43.5389 70.5818C41.7162 69.338 40.1413 67.7555 38.9053 65.9237L38.9075 65.922C39.4964 65.5804 39.6983 64.8243 39.3596 64.2323C39.0208 63.6426 38.2749 63.4408 37.6876 63.774C36.7432 61.8278 36.1492 59.6842 35.99 57.4166H37.0966C37.7757 57.4166 38.327 56.8629 38.327 56.1796C38.327 55.4957 37.7757 54.9426 37.0966 54.9426H35.99C36.1493 52.6744 36.7421 50.5309 37.6876 48.5846C37.8789 48.6934 38.0864 48.7464 38.2922 48.7464C38.7173 48.7464 39.1307 48.5243 39.3589 48.1279C39.6988 47.5365 39.4969 46.7793 38.9086 46.4382L38.9047 46.4343C40.1413 44.602 41.7161 43.0188 43.5382 41.7762L43.5399 41.7796C43.7682 42.1765 44.1815 42.3981 44.6066 42.3981C44.8158 42.3981 45.0273 42.3451 45.2213 42.2324C45.8068 41.8924 46.0082 41.1431 45.6767 40.5522C47.6121 39.6022 49.7451 39.0057 52.0013 38.845V39.9585C52.0013 40.6424 52.5526 41.1955 53.2318 41.1955C53.911 41.1955 54.4623 40.6419 54.4623 39.9585V38.845C56.7174 39.0057 58.8508 39.6011 60.7869 40.5516C60.4549 41.1419 60.6556 41.8918 61.2412 42.2318C61.4347 42.3446 61.6467 42.3975 61.8558 42.3975C62.2809 42.3975 62.6943 42.1754 62.9226 41.779L62.9248 41.7751C64.7475 43.0188 66.3229 44.6026 67.5595 46.4343L67.5545 46.4366C66.9662 46.7788 66.7654 47.5354 67.1047 48.1263C67.3329 48.5232 67.7463 48.7448 68.1714 48.7448C68.3767 48.7448 68.5847 48.6918 68.776 48.5829C69.721 50.5291 70.3144 52.6739 70.4736 54.9409H69.366C68.6868 54.9409 68.1355 55.4946 68.1355 56.1779C68.1355 56.8618 68.6868 57.4149 69.366 57.4149H70.4736C70.3143 59.6819 69.7204 61.8266 68.776 63.7723C68.1888 63.4385 67.4429 63.6404 67.1046 64.229C66.7648 64.821 66.9661 65.5776 67.555 65.9187L67.5583 65.9204C66.3211 67.7544 64.7463 69.3382 62.9242 70.5819L62.9243 70.5818ZM54.4623 53.1276V43.1726C54.4623 42.4887 53.911 41.9356 53.2319 41.9356C52.5527 41.9356 52.0014 42.4893 52.0014 43.1726V53.1276C50.8029 53.6181 49.9537 54.7987 49.9537 56.1778C49.9537 56.3312 49.9784 56.4778 49.9986 56.6266L44.5007 59.8177C43.9118 60.1593 43.7105 60.9165 44.0503 61.5074C44.2775 61.9043 44.6919 62.1259 45.1171 62.1259C45.3262 62.1259 45.5377 62.0729 45.7317 61.9601L51.2302 58.7685C51.7854 59.2037 52.4758 59.4738 53.2318 59.4738C55.0394 59.4738 56.5104 57.9961 56.5104 56.1778C56.5099 54.7988 55.6608 53.6182 54.4622 53.1276L54.4623 53.1276ZM53.2319 56.9986C52.7815 56.9986 52.4147 56.6299 52.4147 56.1772C52.4147 55.7245 52.7815 55.3557 53.2319 55.3557C53.6822 55.3557 54.049 55.7245 54.049 56.1772C54.049 56.6305 53.6822 56.9986 53.2319 56.9986ZM11.5493 7.99053C12.5577 6.32277 13.354 5.00458 11.5246 1.8626C11.1819 1.27287 11.3788 0.515127 11.9654 0.170014C12.5504 -0.175591 13.3053 0.0223036 13.6496 0.613158C16.221 5.02887 14.7959 7.3838 13.6529 9.27542C12.6636 10.911 11.9491 12.0938 13.6406 14.9094C13.9917 15.4941 13.8049 16.2547 13.2228 16.6077C13.0242 16.7283 12.8044 16.7858 12.5879 16.7858C12.1712 16.7858 11.7651 16.5733 11.5335 16.1876C9.07034 12.0889 10.4449 9.81608 11.5492 7.99056L11.5493 7.99053ZM23.9859 7.99053C24.9943 6.32277 25.7906 5.00458 23.9612 1.8626C23.6185 1.27287 23.8154 0.514564 24.402 0.170014C24.987 -0.175591 25.7418 0.0223036 26.0861 0.613158C28.6576 5.02887 27.2331 7.3838 26.0895 9.27542C25.1002 10.911 24.3857 12.0938 26.0772 14.9094C26.4282 15.4941 26.2415 16.2547 25.6593 16.6077C25.4608 16.7283 25.2409 16.7858 25.0245 16.7858C24.6078 16.7858 24.2017 16.5733 23.9701 16.1876C21.5075 12.0889 22.8826 9.81608 23.9858 7.99056L23.9859 7.99053ZM36.4236 7.99053C37.432 6.32277 38.2283 5.00458 36.3989 1.8626C36.0562 1.27287 36.2531 0.515127 36.8397 0.170014C37.4252 -0.175591 38.1796 0.0223036 38.5239 0.613158C41.0953 5.02887 39.6708 7.3838 38.5272 9.27542C37.5379 10.911 36.8234 12.0938 38.5149 14.9094C38.866 15.4941 38.6792 16.2547 38.0971 16.6077C37.8985 16.7283 37.6787 16.7858 37.4622 16.7858C37.0455 16.7858 36.6394 16.5733 36.4078 16.1876C33.9441 12.0889 35.3192 9.81608 36.4235 7.99056L36.4236 7.99053Z" fill="black"/>
</svg>
