<svg width="64" height="64" viewBox="0 0 64 64" fill="none" xmlns="http://www.w3.org/2000/svg">
<path fill-rule="evenodd" clip-rule="evenodd" d="M32 0C49.6601 0 64 14.3399 64 32C64 49.6601 49.6601 64 32 64C14.3399 64 0 49.6601 0 32C0 14.3399 14.3399 0 32 0ZM14.7592 33.0775L25.5342 43.852C26.1296 44.4479 27.0943 44.4479 27.6903 43.852L49.24 22.3023C49.8344 21.7079 49.8344 20.7421 49.24 20.1477C48.6441 19.5533 47.6799 19.5533 47.0839 20.1477L26.6117 40.6199L16.9159 30.9219C16.3199 30.328 15.3557 30.328 14.7597 30.9219C14.1653 31.5163 14.1653 32.4826 14.7597 33.077L14.7592 33.0775Z" fill="white"/>
</svg>
