<svg width="16" height="16" viewBox="0 0 16 16" fill="none" xmlns="http://www.w3.org/2000/svg">
<path fill-rule="evenodd" clip-rule="evenodd" d="M10.1434 10.9333L14.0444 14.8344C14.2628 15.0527 14.6179 15.0527 14.8362 14.8344C15.0546 14.616 15.0546 14.2609 14.8362 14.0426L10.9352 10.1415C11.7247 9.17611 12.1989 7.9426 12.1989 6.59946C12.1989 3.50913 9.68979 1 6.59946 1C3.50913 1 1 3.50913 1 6.59946C1 9.68979 3.50913 12.1989 6.59946 12.1989C7.94333 12.1989 9.17745 11.7246 10.1434 10.9334L10.1434 10.9333ZM9.77378 9.75906C10.5801 8.94877 11.079 7.83176 11.079 6.59924C11.079 4.12709 9.07161 2.11967 6.59946 2.11967C4.12731 2.11967 2.11989 4.12709 2.11989 6.59924C2.11989 9.07138 4.12731 11.0788 6.59946 11.0788C7.83246 11.0788 8.95011 10.5794 9.7604 9.77192C9.76265 9.76967 9.7649 9.76742 9.76715 9.76517C9.7694 9.76292 9.77165 9.7613 9.7739 9.75905L9.77378 9.75906Z" fill="white" stroke="white"/>
</svg>
