<svg width="32" height="34" viewBox="0 0 32 34" fill="none" xmlns="http://www.w3.org/2000/svg">
<path d="M27.9461 14.025C28.3293 13.624 28.6296 13.1514 28.8301 12.6342C29.0305 12.117 29.1271 11.5654 29.1143 11.0109C29.1014 10.4564 28.9795 9.90988 28.7554 9.40252C28.5313 8.89516 28.2094 8.43694 27.8081 8.05402L24.1771 4.58103C23.3671 3.80727 22.283 3.38682 21.1632 3.41213C20.0433 3.43745 18.9793 3.90645 18.2051 4.71603L2.81311 20.824L12.5521 30.132L27.9461 14.025Z" fill="#F3B24D"/>
<path d="M12.552 30.13L7.68304 25.475L2.81303 20.823L1.19104 27.653L5.80203 32.059L12.552 30.13Z" fill="#F9DFB3"/>
<path d="M5.80208 32.059L1.19108 27.653L0.106069 32.221C0.067794 32.3818 0.0722602 32.5498 0.119023 32.7083C0.165786 32.8668 0.253229 33.0103 0.37264 33.1246C0.492051 33.2388 0.639281 33.3199 0.799703 33.3596C0.960124 33.3993 1.12814 33.3964 1.28707 33.351L5.80208 32.059Z" fill="#343C49"/>
<path d="M31.1967 9.30826L22.9181 1.30603C22.521 0.922193 21.8879 0.932938 21.5041 1.33003L17.8171 5.14433C17.4333 5.54142 17.444 6.17449 17.8411 6.55833L26.1197 14.5606C26.5168 14.9444 27.1498 14.9336 27.5337 14.5366L31.2207 10.7223C31.6045 10.3252 31.5938 9.6921 31.1967 9.30826Z" fill="#E88B33"/>
</svg>
