<svg width="20" height="20" viewBox="0 0 20 20" fill="none" xmlns="http://www.w3.org/2000/svg">
<path d="M20 10C20 7.34781 18.9465 4.80429 17.071 2.92895C15.1956 1.05362 12.6522 0 10 0C7.34781 0 4.80429 1.05352 2.92895 2.92895C1.05362 4.80438 0 7.34781 0 10C0 12.6522 1.05352 15.1957 2.92895 17.071C4.80438 18.9464 7.34781 20 10 20C12.6514 19.997 15.1931 18.9427 17.0681 17.0681C18.9428 15.193 19.997 12.6514 20 10ZM4.69714 14.125L3.55209 15.27C2.51343 14.0055 1.872 12.4616 1.70943 10.8332H3.33371V9.16657H1.70943C1.872 7.53819 2.51337 5.99429 3.55209 4.72981L4.69714 5.87486L5.87533 4.69667L4.73029 3.55162C5.99476 2.51257 7.53867 1.87152 9.16705 1.70895V3.33324H10.8337V1.70895C12.4621 1.87152 14.006 2.51252 15.2705 3.55162L14.1254 4.69667L15.3036 5.87486L16.4487 4.72981C17.4873 5.99429 18.1288 7.53819 18.2913 9.16657H16.667V10.8332H18.2913C18.1288 12.4616 17.4874 14.0055 16.4487 15.27L15.3036 14.125L14.1254 15.3031L15.2705 16.4482C14.006 17.4872 12.4621 18.1283 10.8337 18.2909V16.6666H9.16705V18.2909C7.53867 18.1283 5.99476 17.4873 4.73029 16.4482L5.87533 15.3031L4.69714 14.125Z" fill="black"/>
<path d="M10.0007 12.5002C10.7923 12.5017 11.5379 12.127 12.0092 11.4908C12.4806 10.8547 12.6219 10.0326 12.3902 9.27542C12.1584 8.51828 11.5807 7.91637 10.834 7.65342V5.00018H9.16732V7.65342C8.46158 7.90565 7.90618 8.46109 7.65389 9.16685H5.83398V10.8335H7.65389C7.82577 11.3194 8.14347 11.7401 8.56349 12.0385C8.98351 12.3368 9.48536 12.4979 10.0006 12.5002L10.0007 12.5002ZM10.0007 9.16685C10.3377 9.16685 10.6417 9.36997 10.7704 9.68135C10.8995 9.99274 10.8284 10.351 10.5899 10.5895C10.3515 10.8279 9.99321 10.899 9.68182 10.7699C9.37044 10.6412 9.16732 10.3372 9.16732 10.0002C9.16732 9.53999 9.54046 9.16685 10.0007 9.16685Z" fill="black"/>
</svg>
