<svg width="8" height="12" viewBox="0 0 8 12" fill="none" xmlns="http://www.w3.org/2000/svg">
<path d="M7.0659 5.95425C7.05531 5.80557 6.9952 5.66474 6.89515 5.55425L2.09515 0.221001C1.9769 0.0894861 1.81125 0.010334 1.63463 0.000957489C1.45802 -0.00841904 1.28492 0.0527458 1.1534 0.171C1.02189 0.289253 0.942735 0.454906 0.933358 0.631519C0.923981 0.808132 0.985149 0.981235 1.1034 1.11275L5.5034 6.0005L1.1034 10.8877C1.04485 10.9529 0.999697 11.0289 0.970521 11.1115C0.941345 11.194 0.928715 11.2815 0.933358 11.369C0.938001 11.4564 0.959824 11.5421 0.997579 11.6211C1.03533 11.7001 1.08828 11.7709 1.1534 11.8295C1.21852 11.8881 1.29454 11.9332 1.37711 11.9624C1.45968 11.9916 1.54718 12.0042 1.63463 11.9995C1.72208 11.9949 1.80776 11.9731 1.88678 11.9353C1.96579 11.8976 2.0366 11.8446 2.09515 11.7795L6.89515 6.44625C6.95512 6.37996 7.00114 6.30229 7.03047 6.21785C7.05981 6.13341 7.07186 6.04394 7.0659 5.95475V5.95425Z" fill="#017AFB"/>
</svg>
