<svg width="80" height="80" viewBox="0 0 80 80" fill="none" xmlns="http://www.w3.org/2000/svg">
<path d="M33.1113 18.6641H35.7781V21.3309H33.1113V18.6641Z" fill="black"/>
<path d="M41.1113 18.6641H43.7781V21.3309H41.1113V18.6641Z" fill="black"/>
<path d="M38.4433 29.3313C38.7064 29.3313 38.9642 29.2533 39.1832 29.1074L43.1834 26.4407C43.7959 26.0317 43.9614 25.2037 43.5531 24.5911C43.1441 23.9786 42.3161 23.8131 41.7035 24.2215L38.4432 26.3977L35.1829 24.2244C34.8888 24.0279 34.5287 23.9565 34.1816 24.0262C33.8352 24.0952 33.5298 24.2994 33.3334 24.5934C32.925 25.2066 33.0905 26.0346 33.7031 26.443L37.7032 29.1097C37.9223 29.255 38.18 29.3318 38.4431 29.3312L38.4433 29.3313Z" fill="black"/>
<path d="M9.44954 30.5565L13.7086 33.1124L27.7758 43.3433V58.6658H31.7759V61.3326H3.77479C3.03846 61.3326 2.44141 61.9296 2.44141 62.666V78.6666C2.44141 79.0202 2.58189 79.3595 2.8319 79.6095C3.08191 79.8595 3.42121 80 3.77479 80H73.111C73.4646 80 73.8039 79.8595 74.0539 79.6095C74.3039 79.3595 74.4444 79.0202 74.4444 78.6666V62.666C74.4444 62.3124 74.3039 61.9731 74.0539 61.7231C73.8039 61.4731 73.4646 61.3326 73.111 61.3326H45.1098V58.6658H49.11V43.3433L63.1772 33.1118L67.4362 30.5558V30.5564C68.7553 29.7647 69.5518 28.3296 69.5256 26.7914C69.5 25.2532 68.6553 23.8461 67.3101 23.0995C65.9654 22.3525 64.3242 22.3804 63.0051 23.1716L59.1008 25.5145L49.11 31.0641V15.289L56.6317 9.0221C56.9936 8.7191 57.1686 8.24707 57.0912 7.78098C57.0138 7.31489 56.6959 6.92499 56.2555 6.75534L38.9214 0.0883968C38.6131 -0.0294656 38.2726 -0.0294656 37.9642 0.0883968L20.6302 6.75534C20.104 6.93511 19.7599 7.44108 19.7861 7.99645H19.7754V16.242C18.5795 16.6646 17.6551 17.6295 17.2836 18.8426C16.9127 20.0552 17.1383 21.3725 17.8925 22.3922C18.6473 23.4118 19.8402 24.0137 21.1086 24.0137C22.3771 24.0137 23.57 23.4119 24.3248 22.3922C25.079 21.3725 25.3046 20.0552 24.9337 18.8426C24.5623 17.6295 23.6378 16.6645 22.4419 16.242V10.8429L27.7754 15.2883V31.0635L17.7846 25.5126L13.8803 23.1696C12.5612 22.3785 10.92 22.3506 9.57538 23.097C8.23009 23.8441 7.38543 25.2513 7.35982 26.7894C7.33363 28.3276 8.1301 29.7627 9.44921 30.5538L9.44954 30.5565ZM46.4431 13.3306H30.4424V10.6638H46.4431V13.3306ZM30.4424 15.9974H46.4431V31.998H30.4424V15.9974ZM46.4431 48.5077L43.7763 49.841V34.6642H46.4431V48.5077ZM33.1092 34.6642V49.841L30.4424 48.5077V34.6642H33.1092ZM34.4426 58.6652H37.1093V61.332H34.4426V58.6652ZM39.7761 63.9987V77.3326H26.4422V63.9987H39.7761ZM5.10803 63.9987H7.77481V77.3326H5.10803V63.9987ZM10.4416 77.3326V63.9987H23.7755V77.3326H10.4416ZM42.4429 77.3326V63.9987H45.1097V77.3326H42.4429ZM47.7765 63.9987H50.4432V77.3326H47.7765V63.9987ZM71.7774 77.3326H69.1107V63.9987H71.7774V77.3326ZM66.4439 63.9987V77.3326H53.11V63.9987H66.4439ZM42.4429 61.332H39.7761V58.6652H42.4429V61.332ZM30.4424 55.9984V51.4887L33.8467 53.1983C34.261 53.4054 34.7533 53.3822 35.1468 53.1376C35.5402 52.8929 35.7783 52.4614 35.776 51.9982V34.6642H41.1095V51.9982C41.1071 52.4614 41.3453 52.8929 41.7387 53.1376C42.1322 53.3822 42.6245 53.4054 43.0388 53.1983L46.4431 51.4887V55.9984H30.4424ZM49.1098 40.0465V34.1153L59.2061 28.5056L60.746 31.5831L49.1098 40.0465ZM64.3775 25.4644C64.7686 25.2293 65.2401 25.1674 65.6782 25.2942C66.1169 25.4204 66.4824 25.724 66.6883 26.1311C67.0627 26.8966 66.7919 27.8217 66.0645 28.2645L62.9977 30.1075L61.531 27.1663L64.3775 25.4644ZM21.1087 21.3309C20.5694 21.3309 20.083 21.0059 19.8771 20.5077C19.6705 20.0095 19.7842 19.4362 20.1658 19.0546C20.5474 18.6731 21.1206 18.5594 21.6188 18.766C22.1171 18.9719 22.4421 19.4582 22.4421 19.9975C22.4421 20.3511 22.3016 20.6904 22.0516 20.9404C21.8016 21.1904 21.4623 21.3309 21.1087 21.3309ZM38.4427 2.75798L53.179 8.42602L49.1098 11.8172V9.33029C49.1098 8.9767 48.9694 8.6374 48.7193 8.38739C48.4693 8.13739 48.13 7.9969 47.7765 7.9969H29.109C28.3727 7.9969 27.7756 8.59395 27.7756 9.33029V11.8172L23.7064 8.42602L38.4427 2.75798ZM27.7756 40.0471L16.1395 31.5843L17.6794 28.5068L27.7756 34.1161V40.0471ZM10.1978 26.1317C10.4013 25.7222 10.7674 25.4168 11.2073 25.2906C11.3573 25.2466 11.5133 25.224 11.6699 25.224C11.9657 25.224 12.2556 25.3049 12.5086 25.4585L15.3634 27.1716L13.8967 30.1129L10.8299 28.2699V28.2705C10.0953 27.83 9.82091 26.9008 10.1977 26.1317L10.1978 26.1317Z" fill="black"/>
<path d="M33.1114 74.6664C34.1722 74.6664 35.1901 74.245 35.94 73.495C36.6899 72.7449 37.1115 71.727 37.1115 70.6663C37.1115 69.6057 36.6901 68.5876 35.94 67.8377C35.19 67.0878 34.172 66.6663 33.1114 66.6663C32.0508 66.6663 31.0327 67.0877 30.2828 67.8377C29.5329 68.5878 29.1113 69.6057 29.1113 70.6663C29.1113 71.727 29.5328 72.7451 30.2828 73.495C31.0328 74.2449 32.0508 74.6664 33.1114 74.6664ZM33.1114 69.3329C33.6507 69.3329 34.1371 69.6579 34.343 70.1561C34.5496 70.6544 34.4359 71.2276 34.0543 71.6092C33.6728 71.9907 33.0995 72.1044 32.6013 71.8979C32.103 71.6919 31.778 71.2056 31.778 70.6663C31.778 69.9299 32.3751 69.3329 33.1114 69.3329Z" fill="black"/>
<path d="M6.83398 36.9415L8.71978 35.0557L11.3859 37.7219L9.50015 39.6077L6.83398 36.9415Z" fill="black"/>
<path d="M54.5137 19.5755L55.8482 15.5759L58.377 16.4194L57.0424 20.4189L54.5137 19.5755Z" fill="black"/>
<path d="M70.5859 35.4024L71.9193 32.7356L74.3045 33.9285L72.9711 36.5953L70.5859 35.4024Z" fill="black"/>
<path d="M0 23.2571L2.66739 19.2563L4.88645 20.7356L2.21906 24.7363L0 23.2571Z" fill="black"/>
<path d="M57.502 42.2735L59.3877 40.3877L62.0539 43.0539L60.1681 44.9397L57.502 42.2735Z" fill="black"/>
<path d="M10.4434 5.33026H13.1101V7.99704H10.4434V5.33026Z" fill="black"/>
<path d="M10.4434 10.6638H13.1101V13.3306H10.4434V10.6638Z" fill="black"/>
<path d="M7.77539 7.99707H10.4422V10.6638H7.77539V7.99707Z" fill="black"/>
<path d="M13.1094 7.99707H15.7762V10.6638H13.1094V7.99707Z" fill="black"/>
<path d="M69.1113 9.33047H71.7781V11.9973H69.1113V9.33047Z" fill="black"/>
<path d="M69.1113 14.664H71.7781V17.3308H69.1113V14.664Z" fill="black"/>
<path d="M66.4453 11.9972H69.1121V14.664H66.4453V11.9972Z" fill="black"/>
<path d="M71.7793 11.9972H74.4461V14.664H71.7793V11.9972Z" fill="black"/>
<path d="M17.5 47.0554L20.1662 44.3893L22.052 46.275L19.3858 48.9412L17.5 47.0554Z" fill="black"/>
</svg>
